<svg width="487" height="390" viewBox="0 0 487 390" fill="none" xmlns="http://www.w3.org/2000/svg">
<g clip-path="url(#clip0)">
<path opacity="0.4" d="M411.024 149.94C417.469 149.94 422.693 144.373 422.693 137.506C422.693 130.64 417.469 125.073 411.024 125.073C404.579 125.073 399.355 130.64 399.355 137.506C399.355 144.373 404.579 149.94 411.024 149.94Z" fill="#6C63FF"/>
<path opacity="0.4" d="M164.99 81.536C174.177 81.536 181.625 73.6006 181.625 63.8119C181.625 54.0231 174.177 46.0877 164.99 46.0877C155.803 46.0877 148.356 54.0231 148.356 63.8119C148.356 73.6006 155.803 81.536 164.99 81.536Z" fill="#6C63FF"/>
<path opacity="0.4" d="M134.204 84.7105C140.648 84.7105 145.873 79.1439 145.873 72.2771C145.873 65.4104 140.648 59.8438 134.204 59.8438C127.759 59.8438 122.535 65.4104 122.535 72.2771C122.535 79.1439 127.759 84.7105 134.204 84.7105Z" fill="#6C63FF"/>
<path d="M420.797 276.543C411.577 287.299 411.242 302.967 411.242 302.967C411.242 302.967 425.857 301.196 435.077 290.44C444.297 279.685 444.632 264.017 444.632 264.017C444.632 264.017 430.018 265.788 420.797 276.543Z" fill="#3F3D56"/>
<path d="M426.006 279.638C423.216 293.899 411.488 303.357 411.488 303.357C411.488 303.357 404.283 289.694 407.073 275.433C409.863 261.173 421.591 251.715 421.591 251.715C421.591 251.715 428.796 265.378 426.006 279.638Z" fill="#6C63FF"/>
<path d="M414.031 132.49V302.487L360.848 349.299H88.7667V171.088L168.156 132.49H414.031Z" fill="#DBE081"/>
<path opacity="0.1" d="M414.031 132.49V133.171L394.939 146.787L360.848 171.088H88.7667L168.156 132.49H414.031Z" fill="black"/>
<path opacity="0.1" d="M414.031 132.49V302.487L360.848 349.299L361.233 170.678L394.939 146.787L413.723 132.49H414.031Z" fill="black"/>
<path d="M342.349 155.895H176.634L188.967 148.504H347.745L342.349 155.895Z" fill="#2F2E41"/>
<path d="M485.373 358.545C485.373 358.545 488.586 372.859 485.665 373.482C482.745 374.104 468.434 373.903 464.929 374.526C461.425 375.148 454.123 374.104 454.123 371.304C454.123 368.503 461.717 366.636 461.717 366.636C461.717 366.636 472.523 360.412 472.815 360.101C473.107 359.79 485.373 358.545 485.373 358.545Z" fill="#2F2E41"/>
<path d="M482.745 274.215C482.745 274.215 481.868 284.795 481.868 285.729C481.868 286.662 482.745 301.288 481.868 301.91C480.992 302.533 482.453 306.889 482.453 308.445C482.453 310.001 487.125 335.829 485.957 345.787C484.789 355.745 487.71 354.811 486.833 355.744C485.957 356.678 485.957 356.678 485.957 358.545C485.957 360.412 476.611 361.968 476.611 361.968L466.39 293.197L471.646 272.659L482.745 274.215Z" fill="#575A89"/>
<path opacity="0.1" d="M482.745 274.215C482.745 274.215 481.868 284.795 481.868 285.729C481.868 286.662 482.745 301.288 481.868 301.91C480.992 302.533 482.453 306.889 482.453 308.445C482.453 310.001 487.125 335.829 485.957 345.787C484.789 355.745 487.71 354.811 486.833 355.744C485.957 356.678 485.957 356.678 485.957 358.545C485.957 360.412 476.611 361.968 476.611 361.968L466.39 293.197L471.646 272.659L482.745 274.215Z" fill="black"/>
<path d="M481.284 362.902C481.284 362.902 484.205 374.104 481.284 374.727C478.364 375.349 464.053 374.014 460.548 374.636C457.044 375.258 449.742 375.349 449.742 372.548C449.742 369.748 457.336 367.881 457.336 367.881C457.336 367.881 468.142 361.657 468.434 361.346C468.726 361.035 481.284 362.902 481.284 362.902Z" fill="#2F2E41"/>
<path d="M485.373 261.768C485.373 261.768 488.878 270.792 484.789 275.46C480.7 280.128 476.027 289.463 476.027 290.085C476.027 290.708 484.205 352.633 483.037 356.678C481.868 360.723 482.16 363.213 482.453 363.835C482.745 364.458 479.532 367.881 476.027 367.881C472.523 367.881 467.266 365.08 466.682 362.59C466.098 360.101 467.558 338.63 467.266 334.584C466.974 330.539 465.513 324.626 464.929 323.382C464.345 322.137 461.133 320.892 460.549 317.158C459.964 313.424 455.292 265.813 456.752 264.257C458.212 262.701 485.373 261.768 485.373 261.768Z" fill="#575A89"/>
<path d="M463.177 190.196C468.661 190.196 473.107 185.459 473.107 179.616C473.107 173.773 468.661 169.036 463.177 169.036C457.693 169.036 453.247 173.773 453.247 179.616C453.247 185.459 457.693 190.196 463.177 190.196Z" fill="#FFB9B9"/>
<path d="M469.31 184.906C469.31 184.906 467.266 196.42 468.726 197.665C470.186 198.909 457.628 200.776 457.628 200.776C457.628 200.776 456.168 185.529 455.876 183.973C455.584 182.417 469.31 184.906 469.31 184.906Z" fill="#FFB9B9"/>
<path d="M455.876 199.843C455.876 199.843 459.38 188.951 473.691 192.063C473.691 192.063 476.319 192.997 475.443 193.93C474.567 194.864 473.691 194.864 474.859 195.797C476.027 196.731 477.488 195.797 476.611 196.731C475.735 197.665 484.497 203.266 483.913 213.846C483.329 224.426 485.957 239.363 483.913 241.852C481.868 244.342 485.373 255.233 484.789 257.411C484.205 259.59 488.294 262.39 486.541 263.324C484.789 264.257 453.247 269.859 452.371 263.324C451.495 256.789 452.079 261.457 451.203 259.901C450.327 258.345 450.035 255.544 450.619 252.121C451.203 248.698 452.663 240.296 452.079 237.185C451.495 234.073 452.079 207.934 453.831 204.822C455.584 201.71 455.876 199.843 455.876 199.843Z" fill="#6C63FF"/>
<path d="M462.009 275.771C462.009 275.771 466.389 293.508 460.84 293.508C455.291 293.508 455.583 275.149 455.583 275.149L462.009 275.771Z" fill="#FFB9B9"/>
<path d="M458.796 179.616C458.796 180.519 460.023 181.091 461.924 181.222H461.927C462.733 181.271 463.541 181.254 464.345 181.172C465.56 181.054 466.062 182.27 466.27 183.876C466.609 186.524 466.135 190.237 466.682 190.819C467.435 191.621 472.929 190.816 474.646 188.995C474.913 188.74 475.091 188.395 475.151 188.018C475.331 186.906 475.846 185.887 476.617 185.115C477.631 183.935 479.073 182.628 480.7 180.55C483.621 176.815 480.7 176.504 479.824 173.704C478.948 170.903 477.488 169.97 477.488 168.102C477.488 166.235 470.77 164.679 465.221 164.991C459.672 165.302 460.841 172.77 460.841 172.77C460.841 172.77 460.511 173.673 460.116 174.836C459.583 176.297 459.15 177.796 458.82 179.324C458.806 179.42 458.798 179.518 458.796 179.616Z" fill="#2F2E41"/>
<path opacity="0.1" d="M459.964 204.511C459.964 204.511 469.894 203.888 470.77 219.447C471.646 235.006 471.354 249.632 471.354 249.943C471.354 250.254 467.266 279.816 463.469 279.816C459.672 279.816 456.752 279.194 455.876 277.638C454.999 276.082 458.212 253.677 458.212 253.677C458.212 253.677 459.672 230.027 457.336 222.559C454.999 215.091 454.707 205.444 459.964 204.511Z" fill="black"/>
<path d="M458.504 202.955C458.504 202.955 468.434 202.332 469.31 217.891C470.186 233.45 469.894 248.076 469.894 248.387C469.894 248.698 465.805 278.26 462.009 278.26C458.212 278.26 455.291 277.638 454.415 276.082C453.539 274.526 456.752 252.121 456.752 252.121C456.752 252.121 458.212 228.471 455.876 221.003C453.539 213.535 453.247 203.888 458.504 202.955Z" fill="#6C63FF"/>
<path d="M293.846 50.8456C293.846 50.8456 289.518 37.7814 286.393 41.8799C283.267 45.9785 291.201 52.8948 291.201 52.8948L293.846 50.8456Z" fill="#A0616A"/>
<path d="M314.281 38.0375L311.678 39.0655C311.678 39.0655 310.434 44.9539 310.915 45.9785C311.396 47.0032 311.636 46.2347 310.915 48.284C310.194 50.3332 308.03 55.7126 307.79 56.4811C307.549 57.2496 293.846 51.614 293.846 48.7963C293.846 48.7963 290.961 52.3825 289.518 53.151C289.518 53.151 305.386 65.4467 307.549 66.9837C309.713 68.5206 310.915 67.7521 312.838 65.959C314.762 64.1659 322.936 49.3086 322.936 49.3086L314.281 38.0375Z" fill="#575A89"/>
<path d="M307.309 128.974C307.309 128.974 307.549 131.792 308.03 132.048C308.511 132.304 312.117 138.709 308.03 139.989C303.943 141.27 301.539 140.758 300.577 141.27C299.616 141.782 282.787 142.807 282.546 139.989C282.306 137.172 290.72 136.659 290.72 136.659C290.72 136.659 298.414 131.28 299.616 128.462C300.818 125.644 307.309 128.974 307.309 128.974Z" fill="#2F2E41"/>
<path d="M356.113 134.098C356.113 134.098 361.883 144.6 360.441 145.881C358.998 147.162 344.95 151.829 342.89 152.029C340.246 152.285 338.322 149.98 340.486 148.699C342.65 147.418 347.218 142.039 347.218 140.245V135.635L356.113 134.098Z" fill="#2F2E41"/>
<path d="M361.643 65.4467C361.643 65.4467 366.691 72.1069 358.758 82.8656L345.535 100.797C345.535 100.797 353.709 114.629 353.949 121.802C354.19 128.974 355.873 127.437 356.354 130.511C356.834 133.585 358.998 132.048 357.315 134.354C355.632 136.659 349.382 138.709 347.458 136.915C346.797 136.271 346.28 135.475 345.947 134.588C345.614 133.701 345.473 132.745 345.535 131.792C345.535 130.768 342.169 124.876 341.929 123.083C341.688 121.29 332.793 106.688 332.793 106.688C332.793 106.688 329.908 97.979 333.274 93.112C336.64 88.2449 338.864 81.3421 338.864 81.3421C338.864 81.3421 328.946 94.1366 321.974 97.2106C321.974 97.2106 319.33 97.7229 319.81 99.0037C320.291 100.285 319.81 101.053 319.089 102.334C318.368 103.615 313.319 118.472 311.636 122.314C309.953 126.157 310.675 128.462 308.751 129.743C306.828 131.024 298.173 129.999 298.173 128.718C298.173 127.437 299.375 124.107 300.096 122.314C300.818 120.521 306.588 99.7722 306.107 96.1859C305.626 92.5997 306.347 87.7326 309.953 85.6834C313.56 83.6341 331.831 66.9837 332.793 66.9837C333.755 66.9837 361.643 65.4467 361.643 65.4467Z" fill="#2F2E41"/>
<path d="M313.319 25.2295C318.896 25.2295 323.417 20.4127 323.417 14.4708C323.417 8.5289 318.896 3.71205 313.319 3.71205C307.743 3.71205 303.222 8.5289 303.222 14.4708C303.222 20.4127 307.743 25.2295 313.319 25.2295Z" fill="#A0616A"/>
<path d="M321.494 15.4954C321.494 15.4954 324.619 21.3871 328.466 22.1556C332.312 22.9241 318.368 34.7075 318.368 34.7075C318.368 34.7075 315.002 23.4364 312.117 22.9241C309.232 22.4118 321.494 15.4954 321.494 15.4954Z" fill="#A0616A"/>
<path d="M311.636 39.5745C311.636 42.9046 321.013 52.3825 321.013 52.3825L329.908 60.3235C329.908 60.3235 330.148 63.1412 331.11 63.3974C332.072 63.6535 333.274 63.6535 332.312 65.1905C331.35 66.7275 328.946 70.0575 331.11 70.5699C331.762 70.6756 332.42 70.7423 333.079 70.7697C333.656 70.8055 334.334 70.8388 335.096 70.8696C336.875 70.9362 339.101 70.9797 341.513 70.9618C342.198 70.9592 342.895 70.9507 343.604 70.9362C352.695 70.7441 363.225 69.6297 362.364 65.959C360.922 59.8111 361.883 57.7619 358.758 54.4318C355.632 51.1017 350.584 39.5745 350.584 39.5745C350.584 39.5745 340.486 21.3871 332.072 21.3871L330.324 20.8978C329.512 20.6699 328.653 20.7199 327.869 21.0408C327.085 21.3616 326.416 21.9372 325.956 22.6858C324.268 25.4242 321.606 29.5381 320.051 30.865C317.647 32.9143 317.272 31.4439 317.272 31.4439C317.272 31.4439 311.636 36.2444 311.636 39.5745Z" fill="#575A89"/>
<path d="M333.033 78.5108C333.033 78.5108 326.061 90.0381 330.389 92.0873C334.716 94.1366 337.12 80.0478 337.12 80.0478L333.033 78.5108Z" fill="#A0616A"/>
<path d="M319.92 13.2556C319.533 13.2035 319.41 12.6825 319.345 12.2721C318.996 10.0747 317.459 7.99097 315.394 7.63624C314.605 7.52436 313.802 7.59328 313.04 7.8384C311.948 8.15768 310.923 8.6953 310.019 9.42262C309.577 9.85321 309.066 10.1953 308.509 10.4326C308.131 10.5511 306.522 11.3132 306.146 11.4422C305.319 11.7257 304.636 12.6473 303.784 12.4648C302.97 12.2903 302.661 11.2425 302.53 10.3686C302.232 8.37749 303.301 5.40661 304.365 3.73884C305.172 2.47324 306.537 1.74487 307.903 1.27102C309.503 0.753654 311.146 0.405676 312.81 0.232133C315.056 -0.0504916 317.382 -0.200439 319.534 0.539267C321.687 1.27897 323.647 3.08846 324.049 5.45982C324.132 5.95379 324.148 6.45976 324.25 6.94968C324.501 8.14483 325.243 9.14943 325.676 10.2837C325.988 11.1168 326.133 12.0104 326.101 12.9068C326.07 13.8033 325.862 14.6827 325.492 15.4884C324.893 16.7729 323.85 18.0073 324.075 19.4217L322.22 17.863C321.952 17.7007 321.744 17.4454 321.631 17.1396C321.518 16.8337 321.508 16.496 321.6 16.1827L321.87 13.7075C321.964 13.2591 321.921 12.7907 321.75 12.3693C320.925 10.8345 320.567 13.3424 319.92 13.2556Z" fill="#2F2E41"/>
<path opacity="0.1" d="M337.361 60.8358L335.096 70.8696C337.38 70.9567 340.402 71.0028 343.604 70.9362C344.412 68.3541 345.184 65.6618 345.775 63.1412C347.939 53.9195 344.333 39.8306 342.41 33.1705C340.486 26.5103 335.678 24.7172 335.678 24.7172C333.707 25.4558 331.845 26.4909 330.148 27.7911C327.023 30.0965 337.361 60.8358 337.361 60.8358Z" fill="black"/>
<path opacity="0.1" d="M335.437 60.3235L333.079 70.7697C333.656 70.8056 334.334 70.8389 335.096 70.8696C336.875 70.9362 339.101 70.9798 341.513 70.9618C342.381 68.2184 343.22 65.3237 343.852 62.6289C346.016 53.4072 342.41 39.3183 340.486 32.6582C338.563 25.998 334.356 33.2986 334.356 33.2986C334.356 33.2986 336.038 28.9438 332.913 31.2493C329.788 33.5547 335.437 60.3235 335.437 60.3235Z" fill="black"/>
<path d="M334.716 24.2049C334.716 24.2049 339.525 25.998 341.448 32.6582C343.371 39.3183 346.978 53.4072 344.814 62.6289C342.65 71.8507 338.082 83.3779 338.082 83.3779C338.082 83.3779 333.514 79.7917 331.831 80.5602L336.399 60.3235C336.399 60.3235 326.061 29.5843 329.187 27.2788C330.883 25.9786 332.745 24.9435 334.716 24.2049Z" fill="#575A89"/>
<path d="M338.3 152.693L271.785 5.00734L160.567 61.8742L201.47 152.693H338.3Z" fill="#F2F2F2"/>
<path d="M249.276 62.9772L190.204 93.1812L191.964 97.0879L251.036 66.8839L249.276 62.9772Z" fill="#3F3D56"/>
<path d="M264.916 97.7032L205.844 127.907L207.604 131.814L266.676 101.61L264.916 97.7032Z" fill="#3F3D56"/>
<path d="M275.66 42.5447L260.994 50.0436L268.032 65.6703L282.698 58.1714L275.66 42.5447Z" fill="#3F3D56"/>
<path d="M291.3 77.2706L276.634 84.7696L283.672 100.396L298.338 92.8973L291.3 77.2706Z" fill="#3F3D56"/>
<path d="M276.67 31.7207L270.63 50.0314L262.488 46.9821L261.374 50.3598L272.676 54.5918L279.84 32.9079L276.67 31.7207Z" fill="#57B894"/>
<path d="M292.31 66.4465L286.27 84.7572L278.128 81.7084L277.014 85.0856L288.315 89.3176L295.48 67.6337L292.31 66.4465Z" fill="#57B894"/>
<path d="M6.41915 322.669L36.4702 315.83L30.051 283.811L1.19911e-05 290.65L6.41915 322.669Z" fill="#F2F2F2"/>
<path d="M35.6344 275.256C35.6344 275.256 24.5966 283.656 28.2758 287.016C31.9551 290.376 39.3136 276.936 39.3136 276.936L35.6344 275.256Z" fill="#FFB9B9"/>
<path d="M86.6185 288.136C86.6185 288.136 84.5161 316.138 83.9905 320.058C83.4649 323.978 82.9392 359.26 81.888 363.181C80.8368 367.101 79.7856 376.621 79.7856 376.621H73.4783C73.4783 376.621 74.0039 359.26 72.427 352.54C70.8502 345.82 71.3758 327.339 71.3758 327.339C71.3758 327.339 68.2222 294.297 69.799 289.816C71.3758 285.336 86.6185 288.136 86.6185 288.136Z" fill="#FFB9B9"/>
<path d="M78.2088 374.941C78.2088 374.941 80.8368 376.621 80.8368 377.741C80.8368 378.862 80.3112 381.662 80.8368 382.782C81.3624 383.902 85.0417 388.382 82.9393 389.502C80.8368 390.622 71.3759 389.502 71.3759 389.502C71.3759 389.502 71.9015 381.662 72.4271 381.102C72.9527 380.542 71.9015 374.941 71.9015 374.941H78.2088Z" fill="#2F2E41"/>
<path d="M46.4387 287.45C46.4387 287.45 45.771 315.532 45.9075 319.489C46.044 323.447 43.0909 358.593 43.7502 362.609C44.4094 366.625 44.5169 376.211 44.5169 376.211L50.7893 376.916C50.7893 376.916 51.9769 359.592 54.2071 353.085C56.4373 346.578 57.7352 328.141 57.7352 328.141C57.7352 328.141 64.1266 295.634 62.9998 291.002C61.8731 286.37 46.4387 287.45 46.4387 287.45Z" fill="#FFB9B9"/>
<path d="M46.2505 374.716C46.2505 374.716 43.4715 376.093 43.3611 377.207C43.2508 378.321 43.4976 381.164 42.8646 382.219C42.2315 383.274 38.1312 387.318 40.1117 388.667C42.0922 390.016 51.6112 389.961 51.6112 389.961C51.6112 389.961 51.8609 382.105 51.3934 381.489C50.9259 380.873 52.523 375.422 52.523 375.422L46.2505 374.716Z" fill="#2F2E41"/>
<path d="M79.26 246.134C79.26 246.134 83.4649 246.694 85.0417 256.215C86.6185 265.735 92.4002 289.816 87.6698 291.497C82.9393 293.177 68.7478 296.537 68.2222 295.417C67.6966 294.297 66.6454 291.497 66.6454 291.497C66.6454 291.497 68.2222 296.537 66.1198 296.537C64.0174 296.537 43.5186 293.177 44.0442 291.497C44.5698 289.816 45.621 277.496 45.621 277.496C45.621 277.496 48.7746 256.775 51.9283 253.414C52.841 252.481 53.5496 251.344 54.0038 250.086C54.458 248.828 54.6466 247.479 54.5563 246.134H79.26Z" fill="#2F2E41"/>
<path d="M87.1441 241.654C87.1441 241.654 80.3112 239.974 79.26 242.214C78.2087 244.454 81.888 247.814 83.4648 247.814C85.0417 247.814 87.6697 246.134 87.6697 246.134L87.1441 241.654Z" fill="#FFB9B9"/>
<path d="M72.9527 194.051C78.1778 194.051 82.4136 189.538 82.4136 183.97C82.4136 178.403 78.1778 173.89 72.9527 173.89C67.7275 173.89 63.4917 178.403 63.4917 183.97C63.4917 189.538 67.7275 194.051 72.9527 194.051Z" fill="#FFB9B9"/>
<path d="M71.3758 191.251C71.3758 191.251 69.799 199.091 70.8502 199.091C71.9014 199.091 62.9661 204.131 62.9661 204.131L56.1331 203.011L54.0307 199.651C54.0307 199.651 65.0685 191.811 65.0685 187.33C65.0685 182.85 71.3758 191.251 71.3758 191.251Z" fill="#FFB9B9"/>
<path d="M66.6453 199.091C66.6453 199.091 68.2221 197.971 68.7478 197.971H72.9526C73.4783 197.971 80.3112 199.651 80.3112 199.651L84.5161 224.853C84.5161 224.853 77.1575 237.733 82.4136 247.814C82.4136 247.814 80.8368 246.694 73.4783 247.254C66.1197 247.814 52.9795 249.494 52.4539 249.494C51.9283 249.494 51.9283 245.014 52.4539 243.894C52.9795 242.774 51.9283 243.334 51.9283 240.534C51.9283 237.733 50.3515 232.693 50.3515 232.693L42.9929 204.131C42.9929 204.131 52.4539 198.531 54.0307 199.091C55.6076 199.651 60.338 201.331 61.3893 200.771C62.4405 200.211 66.6453 199.091 66.6453 199.091Z" fill="#6C63FF"/>
<path d="M78.7344 200.211L80.3112 199.651C80.3112 199.651 83.4648 199.091 87.1441 202.451C90.8234 205.812 104.489 215.892 104.489 215.892C104.489 215.892 109.745 220.372 108.169 225.413C106.592 230.453 103.964 242.774 96.0795 242.214C96.0795 242.214 91.349 248.934 88.721 247.814C86.0929 246.694 83.9905 242.214 85.5673 241.654C87.1441 241.094 91.349 235.493 91.349 235.493L86.0929 224.853H84.5161L78.7344 221.492L78.7344 200.211Z" fill="#6C63FF"/>
<path d="M47.1978 203.571L42.9929 204.131C42.9929 204.131 39.3137 205.812 39.8393 213.092C40.3649 220.372 36.6856 253.414 38.2625 257.335C38.2625 257.335 33.0064 276.376 34.0576 276.936C35.1088 277.496 41.4161 280.856 40.8905 278.616C40.3649 276.376 46.6722 260.695 46.6722 260.695C46.6722 260.695 54.0308 252.294 50.8771 240.534V231.013L47.1978 203.571Z" fill="#6C63FF"/>
<path d="M80.8267 193.716L74.1448 195.267L73.2862 191.762L73.6163 195.39L62.8371 197.892L62.363 195.957L62.5452 197.96L55.6412 199.563L54.1642 184.457C52.6459 178.258 58.1875 171.651 64.0052 170.033L66.586 169.316C70.8589 168.127 78.6259 169.208 79.741 173.761C77.7892 181.698 74.4617 190.4 80.8267 193.716Z" fill="#2F2E41"/>
</g>
<defs>
<clipPath id="clip0">
<rect width="487" height="390" fill="white"/>
</clipPath>
</defs>
</svg>
