<svg width="517" height="378" viewBox="0 0 578 481" fill="none" xmlns="http://www.w3.org/2000/svg">
<g clip-path="url(#clip0)">
<path d="M295.196 479.981C312.581 479.981 326.673 463.339 326.673 442.81C326.673 422.282 312.581 405.64 295.196 405.64C277.812 405.64 263.719 422.282 263.719 442.81C263.719 463.339 277.812 479.981 295.196 479.981Z" fill="#6C63FF"/>
<path d="M483.243 477.892C500.853 471.647 519.574 465.135 533.54 450.289C546.02 437.022 554.445 416.763 549.275 396.867C544.116 377.012 528.661 363.773 512.706 357.188C503.656 353.453 494.188 351.381 484.724 349.754C474.436 347.984 464.102 346.535 453.774 345.14C411.951 339.491 369.972 336.04 327.835 334.788C307.043 334.169 286.255 334.184 265.461 334.541C246.889 334.859 227.331 334.851 210.102 325.53C196.705 318.282 184.546 305.096 180.813 287.767C176.504 267.765 184.452 247.394 195.853 232.907C201.863 225.271 208.887 218.844 216.133 212.935C223.994 206.523 232.128 200.566 240.439 195.006C256.808 184.059 273.921 174.742 291.601 167.153C300.323 163.408 309.174 160.178 318.102 157.197C325.641 154.68 333.203 152.16 340.489 148.731C354.574 142.102 367.971 130.873 371.552 112.464C374.946 95.0174 369.223 76.0774 359.19 63.1164C347.583 48.1214 330.081 41.5481 313.302 40.4846C294.465 39.2906 276.062 44.8577 258.356 51.9232C239.472 59.4591 220.995 68.1239 201.712 74.2279C182.59 80.2749 163.098 84.5534 143.414 87.0246C133.777 88.2363 123.85 89.6045 114.156 88.6769C106.032 87.8994 97.9493 85.078 91.9619 78.2695C86.828 72.4315 83.7697 64.4082 84.8212 55.9412C85.0122 54.4033 86.9905 55.0572 86.8007 56.5857C85.5208 66.8924 91.4538 76.3898 98.7649 81.2548C107.215 86.8775 117.497 86.8851 126.904 86.2421C147.302 84.7873 167.562 81.3288 187.473 75.9026C207.039 70.6256 225.905 63.0818 244.751 55.0234C262.649 47.3699 280.947 39.9001 300.069 38.2424C316.66 36.804 334.113 39.6583 348.567 49.897C361.27 58.8954 370.611 73.9019 373.587 91.1221C376.496 107.949 372.468 124.886 361.681 136.629C350.512 148.787 335.199 153.985 320.927 158.773C302.826 164.845 285.113 171.942 267.969 181.158C250.59 190.473 233.923 201.538 218.152 214.23C202.93 226.514 187.906 241.971 183.092 263.885C180.849 274.094 181.263 284.921 185.016 294.563C188.352 303.136 193.848 310.348 200.249 315.91C215.523 329.182 234.773 331.907 253.223 332.178C273.944 332.482 294.666 331.656 315.394 332.058C357.636 332.877 399.793 335.913 441.863 341.167C452.404 342.485 462.933 343.941 473.448 345.536C482.905 346.971 492.395 348.397 501.694 350.946C518.228 355.478 534.316 364.191 544.593 380.745C549.154 387.92 551.98 396.423 552.768 405.347C553.488 414.659 551.557 423.988 547.992 432.272C540.1 450.607 525.319 462.269 509.622 469.931C501.214 474.034 492.493 477.143 483.789 480.23C482.521 480.68 481.979 478.341 483.243 477.892L483.243 477.892Z" fill="#EAEC8B"/>
<path d="M86.1468 75.5525C95.2169 75.5525 102.57 66.8699 102.57 56.1594C102.57 45.4488 95.2169 36.7662 86.1468 36.7662C77.0766 36.7662 69.7239 45.4488 69.7239 56.1594C69.7239 66.8699 77.0766 75.5525 86.1468 75.5525Z" fill="#EAEC8B"/>
<path d="M200.08 112.319C209.151 112.319 216.503 103.636 216.503 92.9255C216.503 82.215 209.151 73.5323 200.08 73.5323C191.01 73.5323 183.658 82.215 183.658 92.9255C183.658 103.636 191.01 112.319 200.08 112.319Z" fill="#EAEC8B"/>
<path d="M296.565 38.7863C305.635 38.7863 312.988 30.1037 312.988 19.3932C312.988 8.68261 305.635 0 296.565 0C287.495 0 280.142 8.68261 280.142 19.3932C280.142 30.1037 287.495 38.7863 296.565 38.7863Z" fill="#EAEC8B"/>
<path d="M356.782 121.207C365.852 121.207 373.205 112.525 373.205 101.814C373.205 91.1035 365.852 82.4209 356.782 82.4209C347.712 82.4209 340.359 91.1035 340.359 101.814C340.359 112.525 347.712 121.207 356.782 121.207Z" fill="#EAEC8B"/>
<path d="M275.352 216.557C284.422 216.557 291.775 207.874 291.775 197.164C291.775 186.453 284.422 177.771 275.352 177.771C266.282 177.771 258.929 186.453 258.929 197.164C258.929 207.874 266.282 216.557 275.352 216.557Z" fill="#EAEC8B"/>
<path d="M172.025 262.616C181.095 262.616 188.448 253.933 188.448 243.222C188.448 232.512 181.095 223.829 172.025 223.829C162.955 223.829 155.602 232.512 155.602 243.222C155.602 253.933 162.955 262.616 172.025 262.616Z" fill="#EAEC8B"/>
<path d="M281.511 334.532C290.581 334.532 297.933 325.849 297.933 315.139C297.933 304.428 290.581 295.746 281.511 295.746C272.44 295.746 265.088 304.428 265.088 315.139C265.088 325.849 272.44 334.532 281.511 334.532Z" fill="#EAEC8B"/>
<path d="M399.208 374.934C408.278 374.934 415.631 366.252 415.631 355.541C415.631 344.831 408.278 336.148 399.208 336.148C390.138 336.148 382.785 344.831 382.785 355.541C382.785 366.252 390.138 374.934 399.208 374.934Z" fill="#EAEC8B"/>
<path d="M536.75 366.046C545.82 366.046 553.172 357.363 553.172 346.653C553.172 335.942 545.82 327.26 536.75 327.26C527.679 327.26 520.327 335.942 520.327 346.653C520.327 357.363 527.679 366.046 536.75 366.046Z" fill="#EAEC8B"/>
<path d="M291.824 54.9501C242.63 55.3604 202.35 102.568 201.651 160.656C201.645 161.192 201.642 164.963 201.642 169.895C201.642 177.127 204.075 184.062 208.405 189.176C212.735 194.29 218.608 197.163 224.732 197.164H224.732C227.768 197.163 230.774 196.456 233.578 195.083C236.383 193.71 238.93 191.698 241.076 189.161C243.221 186.625 244.922 183.615 246.082 180.302C247.242 176.989 247.837 173.438 247.835 169.854C247.832 166.499 247.831 164.176 247.831 164.034C247.829 155.056 249.807 146.233 253.569 138.432C257.331 130.631 262.748 124.12 269.287 119.541C275.826 114.962 283.262 112.472 290.863 112.315C298.464 112.159 305.969 114.342 312.639 118.65C319.309 122.957 324.915 129.241 328.905 136.883C332.894 144.524 335.131 153.261 335.394 162.233C335.657 171.205 333.938 180.103 330.405 188.053C326.873 196.002 321.649 202.729 315.247 207.571L315.255 207.582C315.255 207.582 282.39 232.567 272.37 266.841L272.379 266.843C270.617 273.865 269.724 281.15 269.728 288.473C269.728 291.484 269.878 317.823 270.168 339.201C270.269 346.577 272.822 353.61 277.276 358.784C281.73 363.957 287.727 366.856 293.974 366.854H293.974C297.113 366.854 300.222 366.121 303.12 364.697C306.018 363.273 308.649 361.186 310.862 358.557C313.075 355.928 314.826 352.808 316.013 349.376C317.201 345.945 317.803 342.27 317.783 338.564C317.683 318.985 317.628 296.188 317.628 294.534C317.628 273.488 334.821 252.519 348.944 238.845C365.206 223.099 376.909 201.64 381.61 177.434C382.65 172.451 383.223 167.347 383.32 162.216C383.32 148.064 380.948 134.052 376.342 120.987C371.736 107.922 364.986 96.0627 356.481 86.092C347.976 76.1213 337.885 68.2364 326.788 62.8916C315.691 57.5469 303.809 54.8478 291.824 54.9501Z" fill="#6C63FF"/>
<path d="M577.185 481H0.814793C0.599112 480.999 0.392483 480.898 0.240193 480.717C0.0879041 480.537 0.00238037 480.293 0.00238037 480.038C0.00238037 479.783 0.0879041 479.539 0.240193 479.358C0.392483 479.178 0.599112 479.076 0.814793 479.076H577.185C577.401 479.076 577.609 479.177 577.761 479.358C577.914 479.538 578 479.783 578 480.038C578 480.293 577.914 480.538 577.761 480.718C577.609 480.899 577.401 481 577.185 481Z" fill="#3F3D56"/>
<path d="M430.039 220.594C441.377 220.594 450.568 209.74 450.568 196.352C450.568 182.964 441.377 172.111 430.039 172.111C418.701 172.111 409.51 182.964 409.51 196.352C409.51 209.74 418.701 220.594 430.039 220.594Z" fill="#2F2E41"/>
<path d="M392.104 470.388H383.716L379.724 432.177H392.106L392.104 470.388Z" fill="#A0616A"/>
<path d="M377.723 467.557H393.902V479.587H367.536C367.536 478.007 367.8 476.443 368.312 474.983C368.824 473.524 369.574 472.198 370.52 471.081C371.466 469.964 372.589 469.078 373.825 468.473C375.061 467.869 376.385 467.557 377.723 467.557Z" fill="#2F2E41"/>
<path d="M457.112 470.388H448.723L444.732 432.177H457.114L457.112 470.388Z" fill="#A0616A"/>
<path d="M442.73 467.557H458.909V479.587H432.543C432.543 478.007 432.807 476.443 433.319 474.983C433.831 473.524 434.581 472.198 435.527 471.081C436.473 469.964 437.596 469.078 438.832 468.473C440.068 467.869 441.393 467.557 442.73 467.557Z" fill="#2F2E41"/>
<path d="M426.919 220.735C436.202 220.735 443.726 211.85 443.726 200.889C443.726 189.928 436.202 181.042 426.919 181.042C417.637 181.042 410.113 189.928 410.113 200.889C410.113 211.85 417.637 220.735 426.919 220.735Z" fill="#A0616A"/>
<path d="M436.937 284.761L444.457 264.358C446.283 259.571 446.807 254.234 445.955 249.081C445.103 243.928 442.918 239.215 439.701 235.591C439.041 234.82 438.339 234.099 437.6 233.434C433.89 230.006 429.317 228.138 424.606 228.125C421.438 228.139 418.311 228.961 415.437 230.533C415.19 230.662 414.951 230.799 414.704 230.937C414.232 231.203 413.767 231.494 413.315 231.793C410.369 233.791 407.862 236.578 405.996 239.929C404.13 243.281 402.957 247.104 402.572 251.089L399.253 283.929C398.418 286.506 368.638 379.593 379.053 450.661C379.164 451.42 379.477 452.117 379.948 452.651C380.418 453.184 381.02 453.526 381.667 453.627L392.226 455.324C392.997 455.448 393.779 455.223 394.415 454.694C395.051 454.165 395.494 453.37 395.654 452.471L413.37 352.75C413.48 352.13 413.763 351.572 414.174 351.165C414.585 350.758 415.099 350.525 415.635 350.504C416.171 350.482 416.697 350.674 417.13 351.047C417.563 351.421 417.877 351.955 418.023 352.564L443.054 457.433C443.233 458.195 443.618 458.866 444.15 459.345C444.683 459.824 445.334 460.083 446.004 460.083C446.203 460.082 446.402 460.06 446.599 460.018L459.498 457.085C460.247 456.92 460.918 456.429 461.377 455.71C461.837 454.991 462.053 454.095 461.982 453.198C460.086 428.238 450.013 303.209 436.937 284.761Z" fill="#2F2E41"/>
<path d="M361.604 217.405C361.487 218.585 361.591 219.781 361.908 220.908C362.225 222.036 362.748 223.067 363.439 223.93C364.13 224.793 364.973 225.467 365.909 225.904C366.844 226.341 367.849 226.53 368.854 226.458L378.248 253.118L385.354 240.678L375.344 217.269C375.13 215.285 374.307 213.463 373.032 212.147C371.756 210.831 370.116 210.114 368.423 210.131C366.729 210.147 365.1 210.897 363.843 212.238C362.586 213.579 361.789 215.417 361.604 217.405L361.604 217.405Z" fill="#A0616A"/>
<path d="M425.988 311.605C426.986 311.464 427.947 311.066 428.801 310.439C429.656 309.812 430.384 308.972 430.934 307.977C431.483 306.982 431.842 305.857 431.983 304.681C432.125 303.505 432.047 302.307 431.754 301.17L451.52 284.17L439.62 278.908L422.674 295.858C421.09 296.566 419.781 297.935 418.994 299.707C418.208 301.478 417.999 303.528 418.408 305.469C418.816 307.41 419.814 309.107 421.211 310.238C422.607 311.368 424.307 311.855 425.988 311.605Z" fill="#A0616A"/>
<path d="M393.766 270.891C393.008 270.89 392.252 270.802 391.509 270.628C389.711 270.224 388.025 269.304 386.599 267.949C385.173 266.594 384.052 264.845 383.333 262.858L370.171 243.907C369.893 243.506 369.69 243.04 369.577 242.539C369.464 242.038 369.443 241.515 369.515 241.004C369.587 240.493 369.75 240.006 369.995 239.575C370.239 239.145 370.558 238.781 370.932 238.508L380.296 231.664C380.641 231.411 381.026 231.241 381.427 231.165C381.829 231.089 382.239 231.107 382.635 231.219C383.03 231.331 383.403 231.534 383.731 231.817C384.06 232.1 384.338 232.457 384.549 232.868L393.825 250.915L411.59 235.411C413.005 234.535 414.639 234.29 416.194 234.719C417.749 235.148 419.121 236.224 420.06 237.75C420.999 239.275 421.442 241.149 421.308 243.028C421.174 244.908 420.471 246.667 419.329 247.985L401.598 267.085C399.515 269.524 396.699 270.892 393.766 270.891Z" fill="#2F2E41"/>
<path d="M441.768 299.393C441.744 299.393 441.72 299.393 441.696 299.392C441.264 299.379 440.839 299.26 440.449 299.041C440.059 298.823 439.712 298.51 439.431 298.123L431.105 286.654C430.822 286.263 430.612 285.806 430.489 285.313C430.366 284.819 430.333 284.3 430.393 283.791C430.452 283.281 430.603 282.792 430.834 282.356C431.066 281.92 431.373 281.547 431.735 281.262L447.324 268.99L433.202 248.94C432.38 247.323 432.079 245.41 432.353 243.552C432.626 241.694 433.457 240.015 434.693 238.82C435.929 237.626 437.488 236.997 439.084 237.047C440.681 237.098 442.209 237.825 443.389 239.096L460.553 258.903C461.904 260.361 462.935 262.183 463.558 264.215C464.181 266.246 464.378 268.426 464.13 270.567C463.883 272.708 463.199 274.746 462.138 276.506C461.077 278.266 459.67 279.696 458.038 280.673L444.009 298.251C443.721 298.611 443.374 298.898 442.989 299.095C442.603 299.291 442.188 299.392 441.768 299.393Z" fill="#2F2E41"/>
<path d="M422.646 257.133C422.512 257.133 422.379 257.123 422.246 257.103C421.667 257.019 421.119 256.741 420.669 256.302C420.219 255.862 419.885 255.28 419.707 254.623L413.451 231.974C413.295 231.401 413.319 230.781 413.519 230.228C413.72 229.674 414.083 229.226 414.542 228.964L414.745 228.851C414.929 228.748 415.112 228.645 415.298 228.547C418.215 226.95 421.39 226.117 424.606 226.105C428.78 226.114 432.862 227.562 436.349 230.272C436.817 230.639 437.143 231.209 437.259 231.858C437.374 232.507 437.269 233.183 436.966 233.742L425.23 255.452C424.955 255.968 424.574 256.392 424.122 256.686C423.67 256.98 423.162 257.134 422.646 257.133Z" fill="#E6E6E6"/>
<path d="M446.224 185.53C449.934 185.53 452.941 181.979 452.941 177.598C452.941 173.217 449.934 169.666 446.224 169.666C442.514 169.666 439.507 173.217 439.507 177.598C439.507 181.979 442.514 185.53 446.224 185.53Z" fill="#2F2E41"/>
<path d="M423.196 168.879C418.478 168.879 413.952 171.092 410.616 175.032C407.279 178.972 405.405 184.316 405.405 189.888V198.777H414.663L419.091 189.888L420.419 198.777H448.515L440.988 189.888C440.988 184.316 439.113 178.972 435.777 175.032C432.44 171.092 427.915 168.879 423.196 168.879Z" fill="#2F2E41"/>
<path d="M449.677 172.164C450.419 169.422 451.957 167.076 454.02 165.539C456.083 164.003 458.538 163.374 460.954 163.764C465.235 164.609 468.62 168.673 470.636 173.211C472.653 177.75 473.584 182.829 474.94 187.698C476.296 192.567 478.219 197.462 481.641 200.614C485.064 203.765 490.316 204.62 493.678 201.378C493.294 204.757 492.02 207.908 490.036 210.385C488.053 212.862 485.46 214.54 482.624 215.182C479.789 215.823 476.854 215.396 474.236 213.96C471.617 212.524 469.447 210.153 468.033 207.181C466.259 203.454 465.801 199.087 465.275 194.857C464.749 190.628 464.066 186.252 461.948 182.785C459.83 179.318 455.866 177.053 452.502 178.633L449.677 172.164Z" fill="#2F2E41"/>
<path d="M231.252 184.266C225.128 184.265 219.255 181.392 214.925 176.278C210.595 171.165 208.162 164.229 208.162 156.998C208.161 152.066 208.164 148.295 208.171 147.758C208.365 130.865 211.968 114.269 218.68 99.3491C207.652 117.177 201.588 138.611 201.328 160.687C201.321 161.223 201.318 164.994 201.319 169.926C201.319 177.158 203.752 184.093 208.082 189.207C212.412 194.321 218.285 197.194 224.409 197.195C229.442 197.193 234.336 195.251 238.348 191.664C242.361 188.078 245.272 183.043 246.64 177.324C242.412 181.802 236.931 184.274 231.252 184.266Z" fill="#3F3D56"/>
<path d="M293.39 112.407C300.469 112.806 307.361 115.229 313.474 119.466C319.586 123.703 324.736 129.629 328.482 136.735C332.228 143.84 334.457 151.913 334.979 160.26C335.5 168.607 334.298 176.979 331.477 184.657C335.558 178.996 338.558 172.363 340.272 165.209C341.986 158.055 342.374 150.549 341.408 143.202C340.443 135.855 338.147 128.841 334.678 122.636C331.209 116.432 326.647 111.184 321.305 107.251C315.962 103.317 309.964 100.79 303.72 99.8411C297.475 98.8928 291.131 99.5456 285.119 101.755C279.108 103.965 273.57 107.679 268.885 112.644C264.199 117.61 260.475 123.71 257.967 130.53C262.302 124.508 267.75 119.742 273.892 116.6C280.034 113.457 286.704 112.023 293.39 112.407Z" fill="#3F3D56"/>
<path d="M300.494 353.956C294.247 353.958 288.249 351.059 283.796 345.886C279.342 340.712 276.789 333.679 276.688 326.303C276.398 304.925 276.248 278.586 276.248 275.575C276.244 268.252 277.137 260.967 278.898 253.946L278.89 253.943C279.931 250.419 281.187 246.989 282.65 243.68C278.16 250.746 274.586 258.562 272.047 266.872L272.056 266.874C270.294 273.896 269.401 281.181 269.405 288.504C269.405 291.514 269.555 317.853 269.845 339.231C269.946 346.608 272.499 353.641 276.953 358.815C281.406 363.988 287.404 366.886 293.651 366.885C298.802 366.884 303.814 364.911 307.935 361.261C312.056 357.612 315.064 352.483 316.507 346.644C312.13 351.358 306.418 353.966 300.494 353.956Z" fill="#3F3D56"/>
<path d="M86.5903 470.757L94.979 470.756L98.9704 432.545L86.5883 432.546L86.5903 470.757Z" fill="#FFB8B8"/>
<path d="M111.159 479.954L84.7926 479.956L84.7922 467.926L100.971 467.926C103.673 467.925 106.264 469.193 108.175 471.448C110.085 473.704 111.159 476.764 111.159 479.954L111.159 479.954Z" fill="#2F2E41"/>
<path d="M56.4817 470.757L64.8704 470.756L68.8618 432.545L56.4797 432.546L56.4817 470.757Z" fill="#FFB8B8"/>
<path d="M81.0501 479.954L54.684 479.956L54.6836 467.926L70.8628 467.926C73.5645 467.925 76.1556 469.193 78.0661 471.448C79.9766 473.704 81.05 476.764 81.0501 479.954L81.0501 479.954Z" fill="#2F2E41"/>
<path d="M63.8127 459.005L55.6183 458.496C55.1958 458.47 54.7819 458.345 54.4005 458.128C54.0192 457.912 53.678 457.608 53.3968 457.235C53.1156 456.861 52.8999 456.426 52.7622 455.953C52.6246 455.481 52.5676 454.981 52.5948 454.482L62.3888 326.434L107.491 340.806L111.836 339.406L98.2474 452.763C98.1316 453.615 97.773 454.396 97.2308 454.976C96.6886 455.555 95.9952 455.899 95.2652 455.95L86.4318 456.436C85.9901 456.465 85.5481 456.386 85.1338 456.202C84.7194 456.019 84.3418 455.737 84.0246 455.373C83.7075 455.009 83.4578 454.571 83.2912 454.087C83.1247 453.603 83.045 453.083 83.0572 452.561L84.6578 384.526C84.6652 384.212 84.5727 383.905 84.3983 383.667C84.2239 383.429 83.9804 383.277 83.7156 383.24C83.4509 383.204 83.1842 383.286 82.9681 383.47C82.752 383.654 82.6021 383.927 82.548 384.235L67.1126 456C66.9669 456.852 66.5756 457.617 66.0055 458.166C65.4353 458.715 64.7216 459.013 63.986 459.01C63.9286 459.01 63.8708 459.009 63.8127 459.005Z" fill="#2F2E41"/>
<path d="M88.0964 221.664C97.3786 221.664 104.903 212.778 104.903 201.817C104.903 190.856 97.3786 181.971 88.0964 181.971C78.8143 181.971 71.2896 190.856 71.2896 201.817C71.2896 212.778 78.8143 221.664 88.0964 221.664Z" fill="#FFB8B8"/>
<path d="M60.1143 260.125L61.9623 307.208L62.6303 324.337C62.657 325.083 62.8713 325.802 63.2461 326.403C63.6209 327.005 64.1389 327.46 64.734 327.711L108.074 346.251C108.424 346.404 108.795 346.481 109.169 346.477C109.595 346.48 110.018 346.381 110.412 346.186C110.806 345.991 111.162 345.704 111.46 345.343C111.758 344.982 111.991 344.554 112.146 344.084C112.3 343.614 112.373 343.112 112.36 342.608L110.583 257.951C110.466 251.006 108.301 244.326 104.461 239.063C100.62 233.8 95.3456 230.285 89.5455 229.122C89.1263 229.047 88.6998 228.971 88.2733 228.904C84.6768 228.377 81.0261 228.787 77.5782 230.105C74.1302 231.423 70.9687 233.617 68.3161 236.533C65.5694 239.516 63.4111 243.176 61.9939 247.252C60.5766 251.329 59.935 255.723 60.1143 260.125L60.1143 260.125Z" fill="#6C63FF"/>
<path d="M128.777 336.856C127.752 336.48 126.816 335.827 126.043 334.948C125.269 334.069 124.681 332.989 124.324 331.793C123.967 330.598 123.852 329.321 123.987 328.064C124.122 326.806 124.505 325.604 125.104 324.552L110.406 301.474L123.089 300.547L135.101 322.605C136.387 323.779 137.282 325.45 137.629 327.325C137.976 329.201 137.752 331.16 136.998 332.86C136.243 334.561 135.006 335.893 133.503 336.623C132 337.354 130.327 337.436 128.777 336.856H128.777Z" fill="#FFB8B8"/>
<path d="M118.444 320.376C118.054 320.189 117.7 319.913 117.402 319.564C117.103 319.214 116.867 318.799 116.705 318.341L94.5627 256.045C94.1283 254.825 93.9016 253.516 93.8957 252.193C93.8898 250.87 94.1048 249.558 94.5283 248.333C94.9519 247.108 95.5757 245.994 96.3642 245.053C97.1526 244.113 98.0903 243.366 99.1235 242.854C100.157 242.342 101.265 242.075 102.386 242.069C103.506 242.063 104.617 242.318 105.654 242.819C106.691 243.32 107.634 244.058 108.43 244.989C109.225 245.921 109.858 247.029 110.291 248.25L132.433 310.546C132.76 311.47 132.764 312.509 132.443 313.436C132.122 314.363 131.503 315.101 130.722 315.49L120.892 320.362C120.505 320.555 120.089 320.656 119.669 320.658C119.249 320.661 118.832 320.565 118.444 320.376L118.444 320.376Z" fill="#6C63FF"/>
<path d="M82.6929 318.178L103.96 270.092C104.37 269.168 105.074 268.473 105.918 268.16C106.761 267.848 107.675 267.943 108.459 268.425L139.328 287.463C140.111 287.947 140.7 288.778 140.965 289.774C141.229 290.77 141.149 291.85 140.74 292.776L119.473 340.862C119.063 341.786 118.359 342.481 117.516 342.794C116.672 343.106 115.758 343.011 114.974 342.529L84.1049 323.491C83.3218 323.007 82.7333 322.176 82.4686 321.18C82.2039 320.184 82.2845 319.104 82.6929 318.178Z" fill="#3F3D56"/>
<path d="M96.9554 296.209C96.5773 295.023 95.9697 293.958 95.181 293.098C94.3923 292.238 93.4443 291.608 92.4128 291.258C91.3813 290.908 90.2948 290.848 89.2399 291.081C88.1851 291.315 87.1911 291.837 86.3373 292.605L65.9603 276.643L65.9257 291.648L85.2813 304.506C86.3498 305.952 87.8154 306.908 89.4212 307.206C91.027 307.504 92.6704 307.125 94.0631 306.136C95.4559 305.146 96.5091 303.609 97.0379 301.793C97.5668 299.978 97.5376 298.001 96.9554 296.209Z" fill="#FFB8B8"/>
<path d="M71.192 299.584L54.5387 284.006C52.7371 283.292 51.1092 282.072 49.7948 280.451C48.4804 278.83 47.5187 276.857 46.9922 274.701C46.4657 272.545 46.3902 270.27 46.7722 268.071C47.1542 265.873 47.9822 263.817 49.1852 262.08L64.306 238.679C65.3567 237.163 66.8345 236.144 68.4692 235.808C70.1038 235.472 71.7861 235.843 73.2086 236.851C74.6311 237.86 75.6987 239.439 76.2163 241.301C76.7339 243.162 76.6669 245.181 76.0275 246.989L64.0636 270.099L81.6456 279.947C82.0545 280.176 82.4175 280.505 82.7108 280.912C83.0041 281.319 83.2208 281.795 83.3468 282.308C83.4728 282.821 83.5052 283.36 83.4417 283.889C83.3783 284.418 83.2205 284.925 82.9787 285.377L75.8815 298.64C75.6416 299.088 75.3247 299.471 74.9514 299.765C74.5781 300.059 74.1567 300.257 73.7145 300.346C73.697 300.35 73.6793 300.353 73.6616 300.356C73.2272 300.434 72.7838 300.405 72.359 300.272C71.9342 300.139 71.537 299.905 71.192 299.584Z" fill="#6C63FF"/>
<path d="M75.3968 215.107C75.3247 214.858 75.3018 214.592 75.3299 214.331C75.358 214.07 75.4364 213.82 75.559 213.6C75.6816 213.38 75.8452 213.196 76.0373 213.063C76.2294 212.929 76.4448 212.849 76.6671 212.829C77.1223 212.858 77.5677 212.996 77.9765 213.234C78.3854 213.472 78.7491 213.806 79.0457 214.215C79.6539 215.043 80.3621 215.761 81.1473 216.346C81.9603 216.829 83.0629 216.76 83.5264 215.838C83.9617 214.971 83.6634 213.811 83.4 212.805C82.7295 210.244 82.3543 207.589 82.2846 204.91C82.2087 201.92 82.566 198.8 83.9678 196.468C85.7769 193.458 89.0119 192.315 92.0734 192.398C95.135 192.481 98.1468 193.597 101.179 194.302C102.226 194.546 103.457 194.67 104.157 193.712C104.902 192.694 104.628 191.045 104.311 189.669C103.49 186.1 102.618 182.409 100.708 179.526C98.644 176.531 95.695 174.57 92.4554 174.039C89.3452 173.584 86.188 174.008 83.2433 175.274C78.4457 177.06 74.2241 180.533 71.1432 185.228C67.9672 190.222 66.5948 196.497 67.3262 202.682C68.0406 208.069 70.458 212.936 74.0909 216.302L75.3968 215.107Z" fill="#2F2E41"/>
<path d="M288.261 470.914C283.79 468.614 279.832 465.119 276.7 460.704C273.569 456.288 271.349 451.074 270.216 445.472C269.084 439.87 269.069 434.034 270.173 428.425C271.278 422.815 273.471 417.585 276.58 413.148C272.975 416.256 269.971 420.234 267.768 424.818C265.565 429.401 264.212 434.486 263.8 439.734C263.388 444.983 263.926 450.274 265.378 455.259C266.83 460.243 269.163 464.805 272.223 468.643C275.282 472.48 278.998 475.506 283.124 477.518C287.249 479.531 291.69 480.484 296.151 480.315C300.612 480.146 304.992 478.858 308.999 476.537C313.007 474.216 316.551 470.916 319.395 466.854C314.958 470.683 309.749 473.073 304.287 473.786C298.824 474.498 293.299 473.508 288.261 470.914Z" fill="#3F3D56"/>
</g>
<defs>
<clipPath id="clip0">
<rect width="578" height="481" fill="white"/>
</clipPath>
</defs>
</svg>
