<svg width="517" height="378" viewBox="0 0 517 378" fill="none" xmlns="http://www.w3.org/2000/svg">
<g clip-path="url(#clip0)">
<path d="M31.7927 67.7212C27.6177 67.7212 23.4835 66.8453 19.6262 65.1437C15.7689 63.4421 12.2641 60.948 9.31188 57.8038C6.35965 54.6596 4.01781 50.9268 2.42008 46.8187C0.822344 42.7107 0 38.3076 0 33.8611C0 29.4145 0.822344 25.0115 2.42008 20.9034C4.01781 16.7953 6.35965 13.0626 9.31188 9.91837C12.2641 6.77417 15.7689 4.28004 19.6262 2.57841C23.4835 0.876783 27.6177 0.00097643 31.7927 0.000976563H321.154C325.329 0.00097643 329.463 0.876783 333.321 2.57841C337.178 4.28004 340.683 6.77417 343.635 9.91837C346.587 13.0626 348.929 16.7953 350.527 20.9034C352.125 25.0115 352.947 29.4145 352.947 33.8611C352.947 38.3076 352.125 42.7107 350.527 46.8187C348.929 50.9268 346.587 54.6596 343.635 57.8038C340.683 60.948 337.178 63.4421 333.321 65.1437C329.463 66.8453 325.329 67.7212 321.154 67.7212H31.7927Z" fill="#EAEC8A"/>
<path d="M31.7927 4.41724C24.4606 4.41724 17.4287 7.51932 12.2441 13.0411C7.05953 18.5628 4.14685 26.0519 4.14685 33.8608C4.14685 41.6697 7.05953 49.1588 12.2441 54.6805C17.4287 60.2023 24.4606 63.3043 31.7927 63.3043H321.154C328.486 63.3043 335.518 60.2023 340.703 54.6805C345.887 49.1588 348.8 41.6697 348.8 33.8608C348.8 26.0519 345.887 18.5628 340.703 13.0411C335.518 7.51932 328.486 4.41724 321.154 4.41724H31.7927Z" fill="white"/>
<path d="M119.569 4.4165H118.647V63.3036H119.569V4.4165Z" fill="#EAEC8A"/>
<path d="M234.3 4.4165H233.378V63.3036H234.3V4.4165Z" fill="#EAEC8A"/>
<path d="M233.379 4.4165H119.569V63.3036H233.379V4.4165Z" fill="#6C63FF"/>
<path d="M176.526 15.9065C173.181 15.9065 169.912 16.9627 167.132 18.9414C164.351 20.9202 162.184 23.7327 160.904 27.0233C159.624 30.3139 159.289 33.9348 159.942 37.428C160.594 40.9213 162.204 44.1301 164.569 46.6486C166.934 49.1671 169.947 50.8822 173.227 51.577C176.507 52.2719 179.907 51.9153 182.996 50.5523C186.086 49.1893 188.727 46.8811 190.585 43.9196C192.443 40.9582 193.434 37.4765 193.434 33.9148C193.434 29.1387 191.653 24.5582 188.482 21.181C185.311 17.8038 181.01 15.9065 176.526 15.9065ZM176.526 21.309C177.529 21.309 178.51 21.6258 179.344 22.2195C180.178 22.8131 180.828 23.6569 181.212 24.644C181.596 25.6312 181.696 26.7175 181.501 27.7654C181.305 28.8134 180.822 29.776 180.112 30.5316C179.403 31.2872 178.499 31.8017 177.515 32.0101C176.531 32.2186 175.511 32.1116 174.584 31.7027C173.657 31.2938 172.865 30.6014 172.308 29.7129C171.75 28.8245 171.453 27.78 171.453 26.7115C171.453 25.2788 171.988 23.9048 172.939 22.8918C173.89 21.8788 175.18 21.3097 176.526 21.3097V21.309ZM176.526 47.3175C174.522 47.3077 172.55 46.7774 170.782 45.7725C169.014 44.7676 167.503 43.3186 166.38 41.551C166.461 37.9494 173.144 35.967 176.526 35.967C179.907 35.967 186.59 37.9494 186.671 41.551C185.546 43.3173 184.035 44.7653 182.268 45.77C180.5 46.7747 178.529 47.3058 176.526 47.3175Z" fill="white"/>
<path d="M61.7917 15.9065C58.4475 15.9065 55.1784 16.9627 52.3977 18.9414C49.6171 20.9202 47.4499 23.7327 46.1701 27.0233C44.8903 30.3139 44.5554 33.9348 45.2078 37.428C45.8603 40.9213 47.4707 44.1301 49.8354 46.6486C52.2001 49.1671 55.213 50.8822 58.493 51.577C61.773 52.2719 65.1728 51.9153 68.2624 50.5523C71.3521 49.1893 73.9929 46.8811 75.8509 43.9196C77.7088 40.9582 78.7005 37.4765 78.7005 33.9148C78.7005 29.1387 76.9191 24.5582 73.7481 21.181C70.577 17.8038 66.2762 15.9065 61.7917 15.9065ZM61.7917 21.309C62.795 21.309 63.7758 21.6258 64.6099 22.2195C65.4441 22.8131 66.0943 23.6569 66.4782 24.644C66.8622 25.6312 66.9626 26.7175 66.7669 27.7654C66.5712 28.8134 66.0881 29.776 65.3786 30.5316C64.6692 31.2872 63.7654 31.8017 62.7814 32.0101C61.7974 32.2186 60.7774 32.1116 59.8505 31.7027C58.9236 31.2938 58.1314 30.6014 57.574 29.7129C57.0166 28.8245 56.7191 27.78 56.7191 26.7115C56.7191 25.2786 57.2535 23.9045 58.2048 22.8913C59.1561 21.8782 60.4464 21.309 61.7917 21.309ZM61.7917 47.3175C59.7878 47.3077 57.8164 46.7774 56.0485 45.7725C54.2806 44.7676 52.7695 43.3186 51.6465 41.551C51.7275 37.9494 58.41 35.967 61.7917 35.967C65.1735 35.967 71.8559 37.9494 71.937 41.551C70.8126 43.3173 69.3013 44.7653 67.5337 45.77C65.7661 46.7747 63.7953 47.3058 61.7917 47.3175Z" fill="#EAEC8A"/>
<path d="M291.15 15.9065C287.806 15.9065 284.537 16.9627 281.756 18.9414C278.975 20.9202 276.808 23.7327 275.528 27.0233C274.249 30.3139 273.914 33.9348 274.566 37.428C275.219 40.9213 276.829 44.1301 279.194 46.6486C281.559 49.1671 284.571 50.8822 287.851 51.577C291.131 52.2719 294.531 51.9153 297.621 50.5523C300.71 49.1893 303.351 46.8811 305.209 43.9196C307.067 40.9582 308.059 37.4765 308.059 33.9148C308.059 29.1387 306.277 24.5582 303.106 21.181C299.935 17.8038 295.635 15.9065 291.15 15.9065ZM291.15 21.309C292.153 21.309 293.134 21.6258 293.968 22.2195C294.803 22.8131 295.453 23.6569 295.837 24.644C296.221 25.6312 296.321 26.7175 296.125 27.7654C295.93 28.8134 295.446 29.776 294.737 30.5316C294.028 31.2872 293.124 31.8017 292.14 32.0101C291.156 32.2186 290.136 32.1116 289.209 31.7027C288.282 31.2938 287.49 30.6014 286.932 29.7129C286.375 28.8245 286.077 27.78 286.077 26.7115C286.077 25.2786 286.612 23.9045 287.563 22.8913C288.515 21.8782 289.805 21.309 291.15 21.309ZM291.15 47.3175C289.146 47.3077 287.175 46.7774 285.407 45.7725C283.639 44.7676 282.128 43.3186 281.005 41.551C281.086 37.9494 287.768 35.967 291.15 35.967C294.532 35.967 301.214 37.9494 301.295 41.551C300.171 43.3173 298.66 44.7653 296.892 45.77C295.124 46.7747 293.154 47.3058 291.15 47.3175Z" fill="#EAEC8A"/>
<path d="M192.025 92.3998H161.026C158.691 92.3998 156.799 94.4154 156.799 96.9019V129.917C156.799 132.403 158.691 134.419 161.026 134.419H192.025C194.36 134.419 196.252 132.403 196.252 129.917V96.9019C196.252 94.4154 194.36 92.3998 192.025 92.3998Z" fill="#6C63FF"/>
<path d="M422.283 378C474.594 378 517 371.953 517 364.494C517 357.034 474.594 350.988 422.283 350.988C369.973 350.988 327.567 357.034 327.567 364.494C327.567 371.953 369.973 378 422.283 378Z" fill="#EAEC8A"/>
<path d="M306.653 92.2646H275.653C273.319 92.2646 271.426 94.2803 271.426 96.7667V129.782C271.426 132.268 273.319 134.284 275.653 134.284H306.653C308.987 134.284 310.88 132.268 310.88 129.782V96.7667C310.88 94.2803 308.987 92.2646 306.653 92.2646Z" fill="#EAEC8A"/>
<path d="M305.806 98.1031H277.062V128.716H305.806V98.1031Z" fill="white"/>
<path d="M174.675 119.934L169.69 113.106L172.589 110.704L174.949 113.936L182.923 104.973L185.589 107.663L174.675 119.934Z" fill="white"/>
<path d="M289.49 119.934L284.505 113.106L287.403 110.704L289.764 113.936L297.737 104.973L300.404 107.663L289.49 119.934Z" fill="#EAEC8A"/>
<path d="M77.2942 92.2646H46.2948C43.9602 92.2646 42.0676 94.2803 42.0676 96.7667V129.782C42.0676 132.268 43.9602 134.284 46.2948 134.284H77.2942C79.6289 134.284 81.5214 132.268 81.5214 129.782V96.7667C81.5214 94.2803 79.6289 92.2646 77.2942 92.2646Z" fill="#EAEC8A"/>
<path d="M76.4474 98.1031H47.7039V128.716H76.4474V98.1031Z" fill="white"/>
<path d="M60.1311 119.934L55.1465 113.106L58.045 110.704L60.4052 113.936L68.3784 104.973L71.045 107.663L60.1311 119.934Z" fill="#EAEC8A"/>
<path d="M486.134 353.815H476.848L472.432 315.67H486.137L486.134 353.815Z" fill="#FFB8B8"/>
<path d="M470.211 350.988H488.119V362.994H458.939C458.939 359.81 460.126 356.756 462.24 354.505C464.354 352.253 467.222 350.988 470.211 350.988Z" fill="#2F2E41"/>
<path d="M391.268 353.815H381.983L377.567 315.67H391.271L391.268 353.815Z" fill="#FFB8B8"/>
<path d="M375.35 350.988H393.258V362.994H364.075C364.075 359.81 365.263 356.756 367.377 354.505C369.491 352.253 372.358 350.988 375.347 350.988H375.35Z" fill="#2F2E41"/>
<path d="M422.283 70.8664V66.5407C422.283 59.1417 425.043 52.0458 429.956 46.8139C434.868 41.5821 441.531 38.6428 448.478 38.6428C455.425 38.6428 462.088 41.5821 467 46.8139C471.913 52.0458 474.672 59.1417 474.672 66.5407V70.8657C474.672 76.199 472.683 81.3138 469.142 85.085C465.601 88.8563 460.799 90.9749 455.791 90.9749H441.168C436.16 90.9749 431.357 88.8563 427.817 85.085C424.276 81.3138 422.286 76.199 422.286 70.8657L422.283 70.8664Z" fill="#2F2E41"/>
<path d="M448.479 92.4673C459.496 92.4673 468.428 82.9548 468.428 71.2205C468.428 59.4863 459.496 49.9738 448.479 49.9738C437.461 49.9738 428.529 59.4863 428.529 71.2205C428.529 82.9548 437.461 92.4673 448.479 92.4673Z" fill="#FFB8B8"/>
<path d="M339.967 144.239C340.776 143.425 341.744 142.81 342.8 142.437C343.857 142.064 344.978 141.943 346.084 142.081C347.19 142.219 348.254 142.614 349.201 143.238C350.148 143.861 350.955 144.698 351.565 145.69L368.666 142.245L373.167 152.803L348.952 157.305C347.32 158.284 345.407 158.592 343.576 158.171C341.745 157.75 340.122 156.628 339.015 155.019C337.908 153.409 337.394 151.423 337.569 149.436C337.744 147.45 338.597 145.601 339.967 144.239Z" fill="#FFB8B8"/>
<path d="M432.925 105.847L433.149 106.208L405.108 125.883L357.789 141.975C357.162 142.19 356.624 142.629 356.266 143.219C355.909 143.809 355.755 144.512 355.83 145.209L356.862 154.679C356.908 155.098 357.035 155.502 357.236 155.865C357.437 156.229 357.708 156.544 358.03 156.79C358.352 157.036 358.718 157.207 359.106 157.293C359.494 157.379 359.894 157.378 360.282 157.29L404.817 147.123C406.972 146.634 409.011 145.678 410.805 144.316L442.305 120.443C444.034 119.131 445.21 117.148 445.581 114.922C445.951 112.695 445.487 110.403 444.286 108.538C443.086 106.673 441.246 105.384 439.163 104.948C437.079 104.513 434.919 104.966 433.146 106.21L432.925 105.847Z" fill="#6C63FF"/>
<path d="M477.014 342.99C476.301 342.991 475.603 342.77 475.006 342.355C474.409 341.94 473.939 341.348 473.652 340.653L431.084 228.627C430.984 228.383 430.818 228.179 430.606 228.04C430.394 227.901 430.147 227.834 429.898 227.849C429.65 227.864 429.412 227.959 429.216 228.123C429.02 228.286 428.876 228.51 428.802 228.763L394.072 337.826C393.926 338.333 393.683 338.804 393.36 339.208C393.036 339.612 392.638 339.941 392.191 340.175C391.743 340.409 391.256 340.544 390.758 340.57C390.26 340.596 389.762 340.513 389.295 340.327L377.649 335.675C377.017 335.424 376.462 334.992 376.047 334.427C375.632 333.861 375.372 333.184 375.296 332.47C370.056 283.861 415.745 161.166 416.207 159.931L416.336 159.589L457.985 169.402L458.072 169.502C474.688 188.809 488.346 310.576 490.915 334.791C491.011 335.665 490.824 336.548 490.386 337.295C489.947 338.041 489.283 338.606 488.502 338.897L478.223 342.768C477.834 342.915 477.425 342.99 477.014 342.99V342.99Z" fill="#2F2E41"/>
<path d="M441.129 173.355C431.038 173.355 419.788 171.212 416.325 162.368L416.246 162.165L416.353 161.976C419.087 157.2 422.699 149.052 420.757 147.522C416.932 144.511 415.076 139.555 415.241 132.795C415.599 118.119 424.988 105.088 438.605 100.371C442.406 99.0752 446.274 98.0144 450.19 97.1938C453.045 96.5804 455.992 96.6479 458.819 97.3916C461.646 98.1352 464.284 99.5365 466.542 101.495C468.829 103.466 470.677 105.952 471.955 108.774C473.232 111.597 473.907 114.685 473.93 117.819C474.071 133.501 471.806 155.347 460.192 170.343C459.647 171.039 458.89 171.507 458.053 171.667C452.467 172.744 446.805 173.308 441.129 173.355Z" fill="#6C63FF"/>
<path d="M437.375 172.764C437.924 170.666 439.229 168.884 441.005 167.804C442.781 166.725 444.886 166.435 446.861 166.999C447.264 167.119 447.657 167.274 448.037 167.463L461.021 154.877L470.052 161.357L451.483 178.858C450.644 180.467 449.324 181.732 447.733 182.451C446.141 183.17 444.37 183.302 442.7 182.825C441.727 182.542 440.817 182.056 440.022 181.395C439.227 180.735 438.562 179.913 438.067 178.978C437.572 178.042 437.256 177.011 437.137 175.945C437.018 174.878 437.099 173.797 437.375 172.764Z" fill="#FFB8B8"/>
<path d="M458.965 172.923C458.121 172.923 457.304 172.612 456.652 172.042L451.531 167.586C451.104 167.214 450.762 166.745 450.53 166.212C450.297 165.68 450.181 165.099 450.19 164.511C450.198 163.924 450.331 163.347 450.579 162.823C450.827 162.298 451.183 161.84 451.62 161.483L473.097 143.94C473.352 143.731 473.519 143.423 473.562 143.084C473.605 142.745 473.521 142.401 473.327 142.128L460.072 123.463C458.532 121.301 457.759 118.629 457.891 115.92C458.023 113.21 459.051 110.638 460.792 108.658C462.627 106.548 465.139 105.249 467.83 105.02C470.522 104.791 473.195 105.648 475.321 107.42L475.405 107.515L489.247 128.624C490.744 129.874 491.949 131.476 492.769 133.304C493.589 135.132 494 137.137 493.972 139.162C493.944 141.188 493.476 143.179 492.606 144.98C491.735 146.782 490.486 148.344 488.955 149.546L461.139 172.157C460.509 172.653 459.747 172.92 458.963 172.92L458.965 172.923Z" fill="#6C63FF"/>
<path d="M430.807 65.2433V54.7017L448.479 46.481L465.328 54.6987V65.2403C465.328 65.4676 465.286 65.6926 465.205 65.9025C465.123 66.1124 465.003 66.3032 464.852 66.4638C464.701 66.6245 464.522 66.752 464.325 66.8389C464.128 66.9259 463.917 66.9706 463.704 66.9706H432.432C432.219 66.9706 432.008 66.9259 431.81 66.8389C431.613 66.752 431.434 66.6245 431.283 66.4638C431.132 66.3032 431.013 66.1124 430.931 65.9025C430.85 65.6926 430.807 65.4676 430.807 65.2403V65.2433Z" fill="#2F2E41"/>
<path d="M463.596 49.324C469.713 49.324 474.672 44.0423 474.672 37.527C474.672 31.0118 469.713 25.7301 463.596 25.7301C457.478 25.7301 452.519 31.0118 452.519 37.527C452.519 44.0423 457.478 49.324 463.596 49.324Z" fill="#2F2E41"/>
<path d="M453.372 31.1987C453.371 29.4534 453.734 27.7296 454.434 26.1519C455.135 24.5741 456.156 23.1816 457.423 22.0749C458.69 20.9682 460.172 20.1749 461.762 19.7522C463.352 19.3295 465.01 19.288 466.617 19.6306C465.199 18.9189 463.655 18.5361 462.087 18.5075C460.52 18.4789 458.964 18.8051 457.524 19.4646C456.084 20.1241 454.792 21.1018 453.733 22.3331C452.674 23.5643 451.873 25.021 451.382 26.6068C450.891 28.1926 450.723 29.8712 450.887 31.5317C451.051 33.1922 451.544 34.7966 452.334 36.2388C453.124 37.681 454.192 38.9281 455.469 39.8976C456.745 40.8671 458.2 41.5369 459.738 41.8626C457.836 40.9116 456.228 39.4038 455.101 37.5154C453.974 35.627 453.375 33.4361 453.374 31.1987H453.372Z" fill="#2F2E41"/>
</g>
<defs>
<clipPath id="clip0">
<rect width="517" height="378" fill="white"/>
</clipPath>
</defs>
</svg>
