<svg width="436" height="322" viewBox="0 0 436 322" fill="none" xmlns="http://www.w3.org/2000/svg">
<path d="M86.8701 322C134.847 322 173.74 318.864 173.74 314.997C173.74 311.129 134.847 307.993 86.8701 307.993C38.8931 307.993 0 311.129 0 314.997C0 318.864 38.8931 322 86.8701 322Z" fill="#E6E6E6"/>
<path d="M66.402 71.4463C81.52 64.6207 100.35 68.9453 118.739 71.9468C118.91 68.312 120.984 63.8883 118.812 61.3525C116.172 58.2717 116.415 55.0347 118.003 51.779C122.065 43.4537 116.246 34.5951 110.37 27.2293C109.045 25.5728 107.371 24.2713 105.484 23.4305C103.597 22.5896 101.549 22.2332 99.5078 22.3901L88.623 23.2154C85.9742 23.4162 83.4465 24.4709 81.3779 26.2383C79.3093 28.0058 77.7986 30.4017 77.0478 33.1054C74.4487 36.8576 73.0576 40.5994 73.9335 44.3217C70.0405 47.1457 69.3864 50.5546 71.1358 54.3975C72.6191 56.8171 72.6034 59.1724 71.0683 61.4625C69.0523 64.3822 67.5081 67.6378 66.4993 71.0958L66.402 71.4463Z" fill="#2F2E41"/>
<path d="M425.668 278.364H117.545C114.805 278.364 112.177 277.208 110.239 275.152C108.302 273.095 107.213 270.305 107.213 267.397C218.908 253.618 328.504 253.618 436 267.397C436 270.305 434.911 273.095 432.974 275.152C431.036 277.208 428.409 278.364 425.668 278.364Z" fill="#2F2E41"/>
<path d="M436 268.042L107.213 267.397L145.318 199.338L145.501 199.015V49.0216C145.501 47.201 145.838 45.3981 146.495 43.7161C147.151 42.0341 148.113 40.5057 149.326 39.2183C150.538 37.931 151.978 36.9098 153.563 36.2132C155.147 35.5165 156.846 35.1581 158.561 35.1582H382.829C384.544 35.1581 386.242 35.5165 387.827 36.2132C389.412 36.9098 390.851 37.931 392.064 39.2183C393.277 40.5057 394.239 42.0341 394.895 43.7161C395.552 45.3981 395.889 47.201 395.889 49.0216V200.048L436 268.042Z" fill="#3F3D56"/>
<path d="M158.263 44.835C157.135 44.8363 156.054 45.3125 155.256 46.1591C154.459 47.0057 154.01 48.1535 154.009 49.3507V186.113C154.01 187.311 154.459 188.458 155.256 189.305C156.054 190.152 157.135 190.628 158.263 190.629H384.95C386.078 190.628 387.159 190.152 387.957 189.305C388.754 188.458 389.203 187.311 389.204 186.113V49.3507C389.203 48.1535 388.754 47.0057 387.957 46.1591C387.159 45.3126 386.078 44.8364 384.95 44.835H158.263Z" fill="white"/>
<path d="M159.213 208.692C158.865 208.693 158.523 208.799 158.23 208.999C157.937 209.199 157.703 209.483 157.557 209.819L145.815 236.913C145.687 237.208 145.632 237.532 145.653 237.856C145.674 238.18 145.771 238.493 145.936 238.766C146.101 239.04 146.328 239.264 146.597 239.42C146.865 239.576 147.166 239.658 147.471 239.658H394.387C394.698 239.658 395.003 239.573 395.275 239.413C395.546 239.252 395.775 239.02 395.938 238.74C396.101 238.459 396.194 238.139 396.208 237.809C396.222 237.48 396.156 237.152 396.017 236.857L383.255 209.762C383.104 209.44 382.872 209.169 382.584 208.98C382.296 208.791 381.963 208.691 381.625 208.692H159.213Z" fill="#2F2E41"/>
<path d="M270.695 42.577C272.205 42.577 273.43 41.2772 273.43 39.674C273.43 38.0707 272.205 36.771 270.695 36.771C269.185 36.771 267.96 38.0707 267.96 39.674C267.96 41.2772 269.185 42.577 270.695 42.577Z" fill="white"/>
<path d="M246.425 244.818C246.024 244.819 245.635 244.959 245.317 245.218C244.999 245.477 244.769 245.84 244.665 246.25L241.72 257.862C241.647 258.149 241.637 258.45 241.691 258.741C241.746 259.033 241.862 259.307 242.033 259.543C242.203 259.779 242.422 259.97 242.673 260.101C242.924 260.233 243.2 260.301 243.48 260.301H299.491C299.782 260.301 300.068 260.227 300.327 260.086C300.585 259.944 300.808 259.739 300.976 259.488C301.145 259.237 301.254 258.946 301.296 258.641C301.337 258.335 301.309 258.024 301.214 257.733L297.427 246.121C297.303 245.74 297.07 245.411 296.762 245.177C296.453 244.944 296.083 244.819 295.704 244.818H246.425Z" fill="#2F2E41"/>
<path d="M395.889 196.758V199.338H145.318L145.507 199.016V196.758H395.889Z" fill="#2F2E41"/>
<path d="M388.9 90.315C412.395 90.315 431.442 70.0973 431.442 45.1575C431.442 20.2177 412.395 0 388.9 0C365.405 0 346.358 20.2177 346.358 45.1575C346.358 70.0973 365.405 90.315 388.9 90.315Z" fill="#6C63FF"/>
<path d="M406.525 64.8334H371.276C370.631 64.8327 370.013 64.5606 369.558 64.0768C369.102 63.5931 368.845 62.9371 368.845 62.2529V39.6742C368.846 38.99 369.102 38.3341 369.558 37.8503C370.013 37.3666 370.631 37.0945 371.276 37.0938H406.525C407.169 37.0945 407.787 37.3666 408.243 37.8503C408.699 38.3341 408.955 38.99 408.956 39.6742V62.2529C408.955 62.9371 408.699 63.5931 408.243 64.0768C407.787 64.5606 407.169 64.8327 406.525 64.8334ZM371.276 39.6742V62.2529H406.526L406.525 39.6742L371.276 39.6742Z" fill="white"/>
<path d="M399.84 39.6741H377.961V29.3524C377.961 21.8763 382.562 16.4502 388.9 16.4502C395.239 16.4502 399.84 21.8763 399.84 29.3524L399.84 39.6741ZM380.392 37.0936H397.409V29.3524C397.409 23.2751 393.91 19.0306 388.9 19.0306C383.891 19.0306 380.392 23.2752 380.392 29.3524L380.392 37.0936Z" fill="white"/>
<path d="M388.9 52.8987C390.243 52.8987 391.331 51.7434 391.331 50.3182C391.331 48.8931 390.243 47.7378 388.9 47.7378C387.558 47.7378 386.469 48.8931 386.469 50.3182C386.469 51.7434 387.558 52.8987 388.9 52.8987Z" fill="white"/>
<path d="M359.202 144.241H184.011C183.151 144.24 182.326 143.877 181.718 143.231C181.11 142.585 180.767 141.71 180.766 140.797V94.6674C180.767 93.7544 181.11 92.8791 181.718 92.2335C182.326 91.5879 183.151 91.2247 184.011 91.2236H359.202C360.063 91.2247 360.887 91.5879 361.495 92.2335C362.104 92.8791 362.446 93.7544 362.447 94.6674V140.797C362.446 141.71 362.104 142.585 361.495 143.231C360.887 143.877 360.063 144.24 359.202 144.241ZM184.011 92.6012C183.495 92.6018 183 92.8197 182.635 93.207C182.27 93.5944 182.065 94.1196 182.064 94.6674V140.797C182.065 141.345 182.27 141.87 182.635 142.257C183 142.645 183.495 142.863 184.011 142.863H359.202C359.719 142.863 360.213 142.645 360.578 142.257C360.943 141.87 361.148 141.345 361.149 140.797V94.6674C361.148 94.1196 360.943 93.5944 360.578 93.207C360.213 92.8196 359.719 92.6017 359.202 92.6011L184.011 92.6012Z" fill="#E6E6E6"/>
<path d="M211.232 129.99C218.531 129.99 224.447 123.71 224.447 115.962C224.447 108.215 218.531 101.934 211.232 101.934C203.933 101.934 198.016 108.215 198.016 115.962C198.016 123.71 203.933 129.99 211.232 129.99Z" fill="#E6E6E6"/>
<path d="M241.753 106.61C241.464 106.609 241.177 106.669 240.909 106.787C240.642 106.904 240.399 107.076 240.194 107.293C239.989 107.51 239.826 107.768 239.715 108.052C239.604 108.336 239.547 108.641 239.547 108.948C239.547 109.255 239.604 109.56 239.715 109.843C239.826 110.127 239.989 110.385 240.194 110.602C240.399 110.82 240.642 110.992 240.909 111.109C241.177 111.226 241.464 111.286 241.753 111.286H345.589C346.174 111.286 346.734 111.04 347.147 110.601C347.56 110.163 347.792 109.568 347.792 108.948C347.792 108.328 347.56 107.733 347.147 107.295C346.734 106.856 346.174 106.61 345.589 106.61H241.753Z" fill="#E6E6E6"/>
<path d="M241.753 120.638C241.169 120.638 240.609 120.885 240.196 121.323C239.783 121.761 239.551 122.356 239.551 122.976C239.551 123.596 239.783 124.191 240.196 124.629C240.609 125.068 241.169 125.314 241.753 125.314H286.434C287.019 125.314 287.579 125.068 287.992 124.629C288.405 124.191 288.637 123.596 288.637 122.976C288.637 122.356 288.405 121.761 287.992 121.323C287.579 120.885 287.019 120.638 286.434 120.638H241.753Z" fill="#E6E6E6"/>
<path d="M144.887 121.584L112.502 139.86L112.092 124.63C122.662 122.757 132.719 119.496 142.018 114.186L145.405 105.304C145.774 104.336 146.374 103.486 147.145 102.839C147.917 102.191 148.834 101.768 149.807 101.611C150.779 101.453 151.774 101.566 152.692 101.94C153.611 102.313 154.422 102.934 155.047 103.741C155.96 104.921 156.417 106.426 156.324 107.951C156.231 109.476 155.596 110.906 154.547 111.952L144.887 121.584Z" fill="#FFB8B8"/>
<path d="M65.7565 227.105C65.5202 226.185 65.4701 225.223 65.6093 224.281C65.7485 223.339 66.074 222.439 66.5643 221.64L73.6785 210.051C75.3611 207.31 77.9431 205.33 80.9233 204.495C83.9035 203.661 87.0696 204.031 89.8072 205.534C86.8173 210.936 87.2341 215.676 90.8398 219.794C85.2424 222.695 80.0691 226.438 75.4802 230.909C74.6425 231.515 73.6804 231.9 72.6741 232.032C71.6678 232.163 70.6464 232.038 69.6951 231.666C68.7438 231.294 67.89 230.685 67.2049 229.892C66.5198 229.099 66.0232 228.143 65.7565 227.105Z" fill="#2F2E41"/>
<path d="M146.362 211.951C145.286 213.856 143.766 215.435 141.949 216.536C140.132 217.638 138.079 218.225 135.987 218.242L88.725 218.622L86.6753 206.003L107.582 199.476L89.9548 185.116L109.222 161.183L144.218 195.805C146.263 197.829 147.592 200.537 147.982 203.475C148.373 206.414 147.801 209.406 146.362 211.951Z" fill="#2F2E41"/>
<path d="M81.3461 298.255H70.2776C60.3397 225.946 50.2239 153.435 80.1162 126.371L115.371 132.463L110.862 164.229L91.1847 188.162L81.3461 298.255Z" fill="#2F2E41"/>
<path d="M91.0758 314.635C90.2093 314.886 89.3026 314.939 88.4153 314.791C87.5281 314.643 86.6803 314.298 85.9278 313.778L73.9097 312.063C71.3273 310.277 69.4619 307.536 68.6754 304.373C67.889 301.209 68.2376 297.849 69.6537 294.943C74.7432 298.116 79.2078 297.673 83.0875 293.846C85.8288 299.721 90.3455 299.363 94.6591 304.313C95.2303 305.202 95.593 306.223 95.7171 307.291C95.8411 308.36 95.7229 309.444 95.3724 310.454C95.0218 311.463 94.449 312.37 93.7016 313.097C92.9542 313.824 92.054 314.351 91.0758 314.635Z" fill="#2F2E41"/>
<path d="M107.582 78.0688L87.0852 72.847C90.4895 65.4503 90.7698 57.22 89.1349 48.4786L103.073 48.0435C103.51 58.9136 104.831 69.069 107.582 78.0688Z" fill="#FFB8B8"/>
<path d="M113.216 145.565C98.2946 156.358 87.7517 145.934 79.7062 129.852C80.8242 120.011 79.014 108.234 75.6614 95.4382C74.1704 89.7942 74.7271 83.7619 77.2215 78.5322C79.7159 73.3025 83.9668 69.2556 89.1349 67.1904L106.763 75.0231C121.73 87.9738 124.676 102.002 119.061 116.798L113.216 145.565Z" fill="#6C63FF"/>
<path d="M70.2775 88.9476L53.8798 98.0857L82.9858 116.362L87.0357 126.966C87.306 127.674 87.4377 128.433 87.4227 129.196C87.4077 129.96 87.2464 130.712 86.9486 131.407C86.6508 132.102 86.2227 132.726 85.6904 133.24C85.1581 133.754 84.5329 134.147 83.8527 134.396C83.0795 134.679 82.2551 134.768 81.4441 134.657C80.633 134.545 79.8573 134.235 79.1777 133.752C78.4981 133.269 77.9331 132.626 77.5269 131.873C77.1206 131.119 76.8843 130.276 76.8363 129.409L76.4267 122.019L39.4333 109.061C38.1869 108.624 37.0505 107.892 36.11 106.92C35.1696 105.948 34.4498 104.762 34.0052 103.451C33.3572 101.54 33.3242 99.4554 33.9114 97.5227C34.4987 95.5899 35.6729 93.9183 37.2506 92.7694L66.998 71.1064L70.2775 88.9476Z" fill="#FFB8B8"/>
<path d="M86.6753 90.6885C79.8364 87.5071 73.6176 90.963 65.7682 93.7345L64.5383 70.6715C72.3325 66.2619 79.7637 65.073 86.6753 68.4958L86.6753 90.6885Z" fill="#6C63FF"/>
<path d="M94.8561 59.4672C102.084 59.4672 107.943 53.2479 107.943 45.5759C107.943 37.9039 102.084 31.6846 94.8561 31.6846C87.6285 31.6846 81.7694 37.9039 81.7694 45.5759C81.7694 53.2479 87.6285 59.4672 94.8561 59.4672Z" fill="#FFB8B8"/>
<path d="M110.512 43.8232C97.555 45.1702 87.6819 42.9209 81.3719 36.5162V31.3584H109.412L110.512 43.8232Z" fill="#2F2E41"/>
</svg>
