<svg width="398" height="356" viewBox="0 0 398 356" fill="none" xmlns="http://www.w3.org/2000/svg">
<g clip-path="url(#clip0)">
<path d="M212.064 105.97C211.738 106.318 211.438 106.693 211.167 107.09L169.727 105.539L164.987 96.1198L150.637 101.842L157.498 119.384C158.053 120.801 159.026 121.989 160.272 122.771C161.517 123.552 162.969 123.883 164.407 123.716L211.302 118.26C212.392 119.756 213.885 120.864 215.584 121.438C217.283 122.012 219.106 122.025 220.812 121.474C222.517 120.923 224.024 119.834 225.132 118.354C226.239 116.873 226.895 115.07 227.012 113.185C227.129 111.299 226.701 109.421 225.786 107.799C224.871 106.178 223.512 104.89 221.889 104.107C220.266 103.325 218.456 103.084 216.701 103.418C214.946 103.751 213.329 104.643 212.064 105.975V105.97Z" fill="#FFB9B9"/>
<path d="M132.703 60.1991C146.067 60.1991 156.9 48.7193 156.9 34.5583C156.9 20.3972 146.067 8.91745 132.703 8.91745C119.339 8.91745 108.505 20.3972 108.505 34.5583C108.505 48.7193 119.339 60.1991 132.703 60.1991Z" fill="#2F2E41"/>
<path d="M113.815 20.7334C117.725 16.59 118.518 10.7118 115.585 7.60422C112.652 4.49662 107.105 5.33636 103.195 9.47983C99.2846 13.6233 98.4922 19.5014 101.425 22.609C104.358 25.7166 109.905 24.8769 113.815 20.7334Z" fill="#2F2E41"/>
<path d="M157.923 12.5908C159.552 8.54929 156.751 3.40699 151.665 1.10513C146.58 -1.19673 141.136 0.213515 139.507 4.25504C137.878 8.29656 140.68 13.4389 145.765 15.7408C150.851 18.0426 156.294 16.6323 157.923 12.5908Z" fill="#2F2E41"/>
<path d="M167.909 103.792L149.34 112.591C148.811 112.841 148.238 112.968 147.66 112.962C147.081 112.957 146.51 112.819 145.986 112.559C145.462 112.298 144.997 111.921 144.623 111.454C144.249 110.986 143.974 110.438 143.818 109.847L138.342 89.1563C137.152 86.2852 137.084 83.0312 138.153 80.107C139.222 77.1828 141.341 74.8269 144.047 73.5551C146.752 72.2833 149.822 72.1995 152.586 73.3219C155.349 74.4442 157.58 76.6814 158.79 79.5433L169.661 97.6019C169.972 98.119 170.175 98.7011 170.254 99.3086C170.334 99.916 170.289 100.535 170.123 101.122C169.956 101.709 169.673 102.252 169.291 102.713C168.909 103.173 168.437 103.541 167.909 103.792H167.909Z" fill="#E8E668"/>
<path d="M82.1489 190.364C83.428 190.049 84.6264 189.441 85.6597 188.582C86.693 187.723 87.5361 186.635 88.1296 185.394C88.7231 184.153 89.0525 182.789 89.0946 181.398C89.1368 180.007 88.8906 178.623 88.3735 177.344L121.486 98.072L102.544 93.0165L75.9516 172.528C73.9814 173.591 72.4475 175.383 71.6408 177.564C70.834 179.745 70.8103 182.164 71.5742 184.363C72.3381 186.561 73.8365 188.386 75.7855 189.492C77.7345 190.598 79.9986 190.908 82.1489 190.364Z" fill="#FFB9B9"/>
<path d="M73.1225 334.052L82.7547 337.768L100.866 300.168L86.6494 294.683L73.1225 334.052Z" fill="#FFB9B9"/>
<path d="M98.0745 354.413L67.8018 342.733L72.0604 330.339L90.6368 337.506C93.7389 338.703 96.2652 341.157 97.66 344.327C99.0549 347.498 99.2039 351.126 98.0745 354.413L98.0745 354.413Z" fill="#2F2E41"/>
<path d="M95.906 312.414C95.315 312.414 94.7313 312.275 94.1971 312.007L83.1272 306.451C82.2197 306 81.5046 305.205 81.1225 304.223C80.7405 303.241 80.7194 302.142 81.0632 301.145L112.304 209.472C112.563 208.712 113.02 208.046 113.621 207.551C114.223 207.056 114.945 206.752 115.703 206.674C116.461 206.595 117.225 206.747 117.905 207.11C118.585 207.473 119.154 208.034 119.546 208.726L136.07 237.908C136.438 238.558 136.635 239.301 136.643 240.059C136.651 240.817 136.468 241.563 136.113 242.221L99.4179 310.268C99.0623 310.921 98.5503 311.464 97.9338 311.841C97.3172 312.217 96.6177 312.415 95.906 312.414Z" fill="#2F2E41"/>
<path d="M133.47 62.4404C144.812 62.4404 154.006 52.6977 154.006 40.6793C154.006 28.661 144.812 18.9182 133.47 18.9182C122.128 18.9182 112.934 28.661 112.934 40.6793C112.934 52.6977 122.128 62.4404 133.47 62.4404Z" fill="#FFB9B9"/>
<path d="M162.523 139.619L126.161 129.023L106.822 88.0373C105.893 86.0684 105.454 83.8804 105.548 81.6813C105.641 79.4821 106.263 77.3448 107.356 75.4722C108.448 73.5996 109.974 72.054 111.788 70.982C113.603 69.9101 115.646 69.3474 117.723 69.3475H146.653C149.656 69.3454 152.553 70.5197 154.789 72.6446C162.549 80.0113 178.853 101.249 162.681 139.248L162.523 139.619Z" fill="#6C63FF"/>
<path d="M117.004 112.249L98.5809 103.112C98.0568 102.852 97.5916 102.475 97.2172 102.007C96.8428 101.54 96.5679 100.992 96.4113 100.401C96.2546 99.8111 96.2198 99.1918 96.3094 98.5859C96.3989 97.98 96.6107 97.4017 96.9302 96.8903L108.126 78.973C109.398 76.1406 111.677 73.9577 114.465 72.9028C117.253 71.8479 120.321 72.0069 122.999 73.3449C125.676 74.683 127.743 77.091 128.748 80.0414C129.753 82.9918 129.613 86.2439 128.359 89.0853L122.57 109.608C122.404 110.195 122.12 110.738 121.739 111.199C121.357 111.66 120.886 112.028 120.358 112.279C119.829 112.53 119.256 112.657 118.678 112.652C118.099 112.647 117.528 112.509 117.004 112.249H117.004Z" fill="#6C63FF"/>
<path d="M139.292 344.326H149.543L154.421 302.429L139.291 302.43L139.292 344.326Z" fill="#FFB9B9"/>
<path d="M169.314 354.411L137.097 354.413L137.096 341.223L156.866 341.222C160.167 341.222 163.333 342.611 165.667 345.085C168.002 347.558 169.313 350.913 169.314 354.411Z" fill="#2F2E41"/>
<path d="M143.164 328.361C142.242 328.362 141.348 328.027 140.632 327.411C139.917 326.795 139.424 325.937 139.236 324.981C136.289 310.27 120.986 234.918 109.042 196.104C96.8893 156.615 117.586 138.628 121.858 135.423C122.313 135.083 122.674 134.62 122.905 134.083L126.009 126.848C126.331 126.101 126.849 125.468 127.501 125.024C128.153 124.58 128.911 124.344 129.686 124.344H129.711C152.98 124.491 160.802 132.263 163.085 135.598C163.422 136.095 163.652 136.663 163.761 137.264C163.87 137.865 163.854 138.483 163.715 139.077L148.993 203.44C148.901 203.839 148.881 204.253 148.932 204.66L163.579 321.524C163.65 322.085 163.614 322.656 163.474 323.203C163.334 323.75 163.092 324.262 162.764 324.709C162.435 325.156 162.026 325.529 161.56 325.807C161.093 326.084 160.58 326.261 160.049 326.326L143.636 328.332C143.479 328.351 143.322 328.361 143.164 328.361Z" fill="#2F2E41"/>
<path d="M111.891 26.9917C116.584 30.419 122.154 32.2431 127.854 32.2189C125.821 33.7127 123.506 34.7217 121.07 35.1764C128.647 36.8988 136.479 36.9455 144.075 35.3134C145.763 35.0265 147.392 34.4336 148.891 33.5606C149.638 33.1188 150.288 32.5153 150.8 31.7895C151.312 31.0637 151.675 30.2318 151.864 29.348C152.368 26.2926 150.121 23.5167 147.787 21.6459C144.212 18.8253 140.09 16.8819 135.719 15.9565C131.348 15.031 126.838 15.1465 122.515 16.2947C119.692 17.0679 116.864 18.3744 115.03 20.7767C113.197 23.179 112.653 26.8826 114.4 29.3563L111.891 26.9917Z" fill="#2F2E41"/>
<path d="M352.946 272.105V355.152L332.616 354.529H228.608V286.779L258.956 272.105H352.946Z" fill="#E8E668"/>
<path opacity="0.1" d="M352.946 272.105V272.364L345.647 277.54L332.616 286.779H228.608L258.956 272.105H352.946Z" fill="black"/>
<path opacity="0.1" d="M352.946 272.105V355.152L332.616 354.529L332.763 286.622L345.647 277.54L352.828 272.105H352.946Z" fill="black"/>
<path d="M325.544 281.003H262.197L266.911 278.193H327.607L325.544 281.003Z" fill="white"/>
<path d="M397.164 356H0.836134C0.614378 356 0.401716 355.907 0.24491 355.74C0.0881046 355.574 0 355.349 0 355.114C0 354.879 0.0881046 354.654 0.24491 354.487C0.401716 354.321 0.614378 354.228 0.836134 354.228H397.164C397.386 354.228 397.598 354.321 397.755 354.487C397.912 354.654 398 354.879 398 355.114C398 355.349 397.912 355.574 397.755 355.74C397.598 355.907 397.386 356 397.164 356Z" fill="#E6E6E6"/>
<path d="M291.861 121.056H223.297C221.302 121.053 219.39 120.212 217.979 118.717C216.568 117.222 215.775 115.196 215.772 113.082V34.2274C215.775 32.1133 216.568 30.0865 217.979 28.5916C219.39 27.0967 221.302 26.2558 223.297 26.2534H291.861C293.856 26.2558 295.768 27.0967 297.179 28.5916C298.59 30.0865 299.383 32.1133 299.386 34.2274V113.082C299.383 115.196 298.59 117.222 297.179 118.717C295.768 120.212 293.856 121.053 291.861 121.056ZM223.297 28.0254C221.746 28.0273 220.258 28.6813 219.161 29.844C218.063 31.0067 217.446 32.5831 217.445 34.2274V113.082C217.446 114.726 218.063 116.302 219.161 117.465C220.258 118.628 221.746 119.282 223.297 119.284H291.861C293.412 119.282 294.9 118.628 295.997 117.465C297.095 116.302 297.712 114.726 297.713 113.082V34.2274C297.712 32.5831 297.095 31.0067 295.997 29.844C294.9 28.6813 293.412 28.0273 291.861 28.0254H223.297Z" fill="#3F3D56"/>
<path d="M237.106 59.0355H230.417C229.42 59.0343 228.463 58.6139 227.758 57.8664C227.052 57.119 226.656 56.1055 226.655 55.0485V47.9605C226.656 46.9034 227.052 45.8899 227.758 45.1425C228.463 44.395 229.42 43.9746 230.417 43.9734H237.106C238.104 43.9746 239.06 44.395 239.766 45.1425C240.471 45.8899 240.868 46.9034 240.869 47.9605V55.0485C240.868 56.1055 240.471 57.119 239.766 57.8664C239.06 58.6139 238.104 59.0343 237.106 59.0355Z" fill="#6C63FF"/>
<path d="M237.106 81.1855H230.417C229.42 81.1844 228.463 80.7639 227.758 80.0165C227.052 79.269 226.656 78.2556 226.655 77.1985V70.1105C226.656 69.0535 227.052 68.04 227.758 67.2925C228.463 66.5451 229.42 66.1247 230.417 66.1235H237.106C238.104 66.1247 239.06 66.5451 239.766 67.2925C240.471 68.04 240.868 69.0535 240.869 70.1105V77.1985C240.868 78.2556 240.471 79.269 239.766 80.0165C239.06 80.7639 238.104 81.1844 237.106 81.1855Z" fill="#E8E668"/>
<path d="M285.995 54.7268H254.766C254.101 54.726 253.463 54.4458 252.993 53.9475C252.523 53.4491 252.258 52.7735 252.258 52.0688V50.9401C252.258 50.2354 252.523 49.5598 252.993 49.0615C253.463 48.5632 254.101 48.2829 254.766 48.2821H285.995C286.66 48.2829 287.298 48.5632 287.768 49.0615C288.238 49.5598 288.503 50.2354 288.503 50.9401V52.0688C288.503 52.7735 288.238 53.4491 287.768 53.9475C287.298 54.4458 286.66 54.726 285.995 54.7268Z" fill="#6C63FF"/>
<path d="M285.995 76.8768H254.766C254.101 76.8761 253.463 76.5958 252.993 76.0975C252.523 75.5992 252.258 74.9235 252.258 74.2188V73.0901C252.258 72.3854 252.523 71.7098 252.993 71.2115C253.463 70.7132 254.101 70.4329 254.766 70.4321H285.995C286.66 70.4329 287.298 70.7132 287.768 71.2115C288.238 71.7098 288.503 72.3854 288.503 73.0901V74.2188C288.503 74.9235 288.238 75.5992 287.768 76.0975C287.298 76.5958 286.66 76.8761 285.995 76.8768Z" fill="#E8E668"/>
<path d="M237.106 103.336H230.417C229.42 103.334 228.463 102.914 227.758 102.167C227.052 101.419 226.656 100.406 226.655 99.3486V92.2606C226.656 91.2035 227.052 90.1901 227.758 89.4426C228.463 88.6951 229.42 88.2747 230.417 88.2736H237.106C238.104 88.2747 239.06 88.6951 239.766 89.4426C240.471 90.1901 240.868 91.2035 240.869 92.2606V99.3486C240.868 100.406 240.471 101.419 239.766 102.167C239.06 102.914 238.104 103.334 237.106 103.336Z" fill="#E8E668"/>
<path d="M285.995 99.0269H254.766C254.101 99.0262 253.463 98.7459 252.993 98.2476C252.523 97.7493 252.258 97.0736 252.258 96.3689V95.2402C252.258 94.5355 252.523 93.8599 252.993 93.3616C253.463 92.8633 254.101 92.583 254.766 92.5822H285.995C286.66 92.583 287.298 92.8633 287.768 93.3616C288.238 93.8599 288.503 94.5355 288.503 95.2402V96.3689C288.503 97.0736 288.238 97.7493 287.768 98.2476C287.298 98.7459 286.66 99.0262 285.995 99.0269Z" fill="#E8E668"/>
</g>
<defs>
<clipPath id="clip0">
<rect width="398" height="356" fill="white"/>
</clipPath>
</defs>
</svg>
